M48
METRIC,TZ
T01C.25
T02C.65
T03C.8
T04C.9
;LEADER: 12 
;HEADER: 
;CODE  : ASCII 
;FILE  : AIRQUALITYBLUETOOTHSENSOR-1-2.drl for  ... layers TOP and BOTTOM
;DESIGN: AIRQUALITYBLUETOOTHSENSOR.brd
;T01 Holesize 1. = 0.250000 Tolerance = +0.000000/-0.000000 PLATED MM Quantity = 54
;T02 Holesize 2. = 0.650000 Tolerance = +0.000000/-0.000000 PLATED MM Quantity = 2
;T03 Holesize 3. = 0.800000 Tolerance = +0.000000/-0.000000 PLATED MM Quantity = 14
;T04 Holesize 4. = 0.900000 Tolerance = +0.000000/-0.000000 PLATED MM Quantity = 3
%
G90
T01
X-7850Y-3150
X-7500Y-10650
X-5000Y-10650
X450Y-12350
X-9850Y-3150
X-950Y-17200
X-2750Y-17200
X-4650Y-17200
X-3750Y-3150
X-6600Y3400
X50Y-50
X50Y-950
X-850Y-50
X50Y850
X-650Y10800
X-2017Y4300
X-1050Y14100
X-2500Y13950
X-7350Y1950
X-9450Y12550
X-9500Y4750
X-13350Y19550
X-11360Y12540
X-13700Y-1150
X-600Y5150
X-5650Y-1550
X14450Y11600
X950Y-50
X5250Y3650
X1050Y10800
X11000Y13950
X13450Y10800
X14100Y6500
X16150Y6500
X10600Y-1850
X1000Y19550
X1000Y14900
X950Y12550
X14200Y13050
X9225Y3725
X9200Y5350
X5150Y-1150
X3200Y-2148
X7400Y17250
X3625Y9225
X6850Y-1200
X2800Y-3500
X12500Y-15250
X5750Y-14400
X9500Y-13198
X10600Y-4250
X1600Y-8650
X12900Y-3100
X9800Y-7900
T02
X-3360Y16120
X-9140Y16120
T03
X20450Y6100
X20450Y4100
X20450Y2100
X20450Y100
X20450Y-1900
X22450Y6100
X22450Y4100
X22450Y2100
X22450Y100
X22450Y-1900
X24450Y-16100
X19950Y-16100
X24450Y-9400
X19950Y-9400
T04
X18100Y16050
X18100Y11050
X21600Y13550
M30
