G04 ================== begin FILE IDENTIFICATION RECORD ==================*
G04 Layout Name:  AIRQUALITYBLUETOOTHSENSOR.brd*
G04 Film Name:    SILK_TOP*
G04 File Format:  Gerber RS274X*
G04 File Origin:  Cadence Allegro 17.2-S083*
G04 Origin Date:  Thu Jan 12 19:11:16 2023*
G04 *
G04 Layer:  PACKAGE GEOMETRY/SILKSCREEN_TOP*
G04 Layer:  BOARD GEOMETRY/DESIGN_OUTLINE*
G04 *
G04 Offset:    (0.0000 0.0000)*
G04 Mirror:    No*
G04 Mode:      Positive*
G04 Rotation:  0*
G04 FullContactRelief:  No*
G04 UndefLineWidth:     0.1000*
G04 ================== end FILE IDENTIFICATION RECORD ====================*
%FSLAX25Y25*MOMM*%
%IR0*IPPOS*OFA0.00000B0.00000*MIA0B0*SFA1.00000B1.00000*%
%ADD10C,.1*%
G75*
%LPD*%
G75*
G36*
G01X-190000Y165000D02*
G03I-10000J0D01*
G37*
G36*
G01X-170000Y780000D02*
G03I-10000J0D01*
G37*
G36*
G01X865000Y1340000D02*
G03I-30000J0D01*
G37*
G54D10*
G01X-2305620Y-1728250D02*
X-2292070D01*
Y-1747300D01*
X-2296130Y-1753650D01*
X-2300870Y-1757880D01*
X-2307650Y-1760000D01*
X-2314420Y-1757880D01*
X-2319160Y-1753650D01*
X-2323230Y-1747300D01*
X-2325940Y-1739890D01*
X-2327290Y-1731430D01*
Y-1724020D01*
X-2325940Y-1717670D01*
X-2323230Y-1710260D01*
X-2319160Y-1703910D01*
X-2315100Y-1699680D01*
X-2309680Y-1696500D01*
X-2304940D01*
X-2299520Y-1698620D01*
X-2295460Y-1702850D01*
G01X-2253800Y-1717670D02*
Y-1760000D01*
G01Y-1700730D02*
X-2255150Y-1699680D01*
Y-1697560D01*
X-2253800Y-1696500D01*
X-2252450Y-1697560D01*
Y-1699680D01*
X-2253800Y-1700730D01*
G01X-2185730Y-1760000D02*
Y-1717670D01*
G01Y-1725070D02*
X-2188440Y-1720840D01*
X-2192500Y-1718730D01*
X-2197240Y-1717670D01*
X-2201980Y-1719780D01*
X-2206050Y-1724020D01*
X-2208760Y-1730370D01*
X-2210110Y-1738830D01*
X-2208760Y-1747300D01*
X-2206050Y-1753650D01*
X-2201980Y-1757880D01*
X-2197240Y-1760000D01*
X-2192500Y-1758940D01*
X-2188440Y-1755770D01*
X-2185730Y-1751540D01*
G01X-2131200Y-1722960D02*
X-2135940Y-1718730D01*
X-2140010Y-1717670D01*
X-2145430Y-1719780D01*
X-2149490Y-1724020D01*
X-2152200Y-1731430D01*
X-2152880Y-1738830D01*
X-2152200Y-1746240D01*
X-2149490Y-1752590D01*
X-2145430Y-1757880D01*
X-2140010Y-1760000D01*
X-2135270Y-1757880D01*
X-2131200Y-1753650D01*
G01X-2086160Y-1760000D02*
X-2090220Y-1758940D01*
X-2094290Y-1754710D01*
X-2097000Y-1747300D01*
X-2098350Y-1738830D01*
X-2097000Y-1730370D01*
X-2094290Y-1722960D01*
X-2090220Y-1718730D01*
X-2086160Y-1717670D01*
X-2082100Y-1718730D01*
X-2078030Y-1722960D01*
X-2075320Y-1730370D01*
X-2074640Y-1738830D01*
X-2075320Y-1747300D01*
X-2078030Y-1754710D01*
X-2082100Y-1758940D01*
X-2086160Y-1760000D01*
G01X-2050600D02*
Y-1717670D01*
G01Y-1729310D02*
X-2048570Y-1724020D01*
X-2045180Y-1719780D01*
X-2040440Y-1717670D01*
X-2035700Y-1719780D01*
X-2032310Y-1724020D01*
X-2030280Y-1729310D01*
Y-1760000D01*
G01Y-1729310D02*
X-2028250Y-1724020D01*
X-2024860Y-1719780D01*
X-2020120Y-1717670D01*
X-2015380Y-1719780D01*
X-2011990Y-1724020D01*
X-2009960Y-1730370D01*
Y-1760000D01*
G01X-1974400D02*
X-1978460Y-1758940D01*
X-1982530Y-1754710D01*
X-1985240Y-1747300D01*
X-1986590Y-1738830D01*
X-1985240Y-1730370D01*
X-1982530Y-1722960D01*
X-1978460Y-1718730D01*
X-1974400Y-1717670D01*
X-1970340Y-1718730D01*
X-1966270Y-1722960D01*
X-1963560Y-1730370D01*
X-1962880Y-1738830D01*
X-1963560Y-1747300D01*
X-1966270Y-1754710D01*
X-1970340Y-1758940D01*
X-1974400Y-1760000D01*
G01X-1880250D02*
Y-1696500D01*
X-1862640Y-1749420D01*
X-1845030Y-1696500D01*
Y-1760000D01*
G01X-1816920Y-1731430D02*
X-1795240D01*
X-1797280Y-1724020D01*
X-1800660Y-1719780D01*
X-1805410Y-1717670D01*
X-1810150Y-1718730D01*
X-1814210Y-1721900D01*
X-1816920Y-1729310D01*
X-1818280Y-1735660D01*
Y-1742010D01*
X-1816920Y-1748360D01*
X-1813530Y-1754710D01*
X-1809470Y-1758940D01*
X-1804730Y-1760000D01*
X-1799990Y-1757880D01*
X-1795240Y-1751540D01*
G01X-1771200Y-1760000D02*
Y-1717670D01*
G01Y-1729310D02*
X-1769170Y-1724020D01*
X-1765780Y-1719780D01*
X-1761040Y-1717670D01*
X-1756300Y-1719780D01*
X-1752910Y-1724020D01*
X-1750880Y-1729310D01*
Y-1760000D01*
G01Y-1729310D02*
X-1748850Y-1724020D01*
X-1745460Y-1719780D01*
X-1740720Y-1717670D01*
X-1735980Y-1719780D01*
X-1732590Y-1724020D01*
X-1730560Y-1730370D01*
Y-1760000D01*
G01X-1705160Y-1731430D02*
X-1683480D01*
X-1685520Y-1724020D01*
X-1688900Y-1719780D01*
X-1693650Y-1717670D01*
X-1698390Y-1718730D01*
X-1702450Y-1721900D01*
X-1705160Y-1729310D01*
X-1706520Y-1735660D01*
Y-1742010D01*
X-1705160Y-1748360D01*
X-1701770Y-1754710D01*
X-1697710Y-1758940D01*
X-1692970Y-1760000D01*
X-1688230Y-1757880D01*
X-1683480Y-1751540D01*
G01X-1639120Y-1760000D02*
X-1643180Y-1758940D01*
X-1647250Y-1754710D01*
X-1649960Y-1747300D01*
X-1651310Y-1738830D01*
X-1649960Y-1730370D01*
X-1647250Y-1722960D01*
X-1643180Y-1718730D01*
X-1639120Y-1717670D01*
X-1635060Y-1718730D01*
X-1630990Y-1722960D01*
X-1628280Y-1730370D01*
X-1627600Y-1738830D01*
X-1628280Y-1747300D01*
X-1630990Y-1754710D01*
X-1635060Y-1758940D01*
X-1639120Y-1760000D01*
G01X-2435000Y2140000D02*
Y-1935000D01*
X2820000D01*
Y2140000D01*
X-2435000D01*
G01X-2331610Y-1520000D02*
X-2314680Y-1456500D01*
X-2297750Y-1520000D01*
G01X-2303840Y-1497780D02*
X-2325520D01*
G01X-2258800Y-1477670D02*
Y-1520000D01*
G01Y-1460730D02*
X-2260150Y-1459680D01*
Y-1457560D01*
X-2258800Y-1456500D01*
X-2257450Y-1457560D01*
Y-1459680D01*
X-2258800Y-1460730D01*
G01X-2212400Y-1520000D02*
Y-1477670D01*
G01Y-1486130D02*
X-2209020Y-1481900D01*
X-2205630Y-1478730D01*
X-2200890Y-1477670D01*
X-2197500Y-1478730D01*
X-2193440Y-1481900D01*
G01X-2091160Y-1520000D02*
X-2096580Y-1518940D01*
X-2101320Y-1514710D01*
X-2105380Y-1508360D01*
X-2108090Y-1500950D01*
X-2109450Y-1492480D01*
Y-1484020D01*
X-2108090Y-1475550D01*
X-2105380Y-1468140D01*
X-2101320Y-1461790D01*
X-2096580Y-1457560D01*
X-2091160Y-1456500D01*
X-2085740Y-1457560D01*
X-2081000Y-1461790D01*
X-2076940Y-1468140D01*
X-2074230Y-1475550D01*
X-2072870Y-1484020D01*
Y-1492480D01*
X-2074230Y-1500950D01*
X-2076940Y-1508360D01*
X-2081000Y-1514710D01*
X-2085740Y-1518940D01*
X-2091160Y-1520000D01*
G01X-2085740Y-1503070D02*
X-2077610Y-1520000D01*
G01X-2046800Y-1477670D02*
Y-1507300D01*
X-2044090Y-1514710D01*
X-2040020Y-1518940D01*
X-2035280Y-1520000D01*
X-2030540Y-1518940D01*
X-2026470Y-1514710D01*
X-2023760Y-1507300D01*
G01Y-1520000D02*
Y-1477670D01*
G01X-1967210Y-1520000D02*
Y-1477670D01*
G01Y-1485070D02*
X-1969920Y-1480840D01*
X-1973980Y-1478730D01*
X-1978720Y-1477670D01*
X-1983460Y-1479780D01*
X-1987530Y-1484020D01*
X-1990240Y-1490370D01*
X-1991590Y-1498830D01*
X-1990240Y-1507300D01*
X-1987530Y-1513650D01*
X-1983460Y-1517880D01*
X-1978720Y-1520000D01*
X-1973980Y-1518940D01*
X-1969920Y-1515770D01*
X-1967210Y-1511540D01*
G01X-1923520Y-1520000D02*
Y-1456500D01*
G01X-1867640Y-1477670D02*
Y-1520000D01*
G01Y-1460730D02*
X-1868990Y-1459680D01*
Y-1457560D01*
X-1867640Y-1456500D01*
X-1866290Y-1457560D01*
Y-1459680D01*
X-1867640Y-1460730D01*
G01X-1811760Y-1456500D02*
Y-1520000D01*
G01X-1821240Y-1477670D02*
X-1802280D01*
G01X-1770100Y-1539050D02*
X-1766040Y-1541170D01*
X-1760620Y-1539050D01*
X-1757230Y-1534820D01*
X-1754530Y-1529520D01*
X-1750460Y-1512590D01*
X-1741660Y-1477670D01*
G01X-1763330D02*
X-1750460Y-1512590D01*
G01X-2318230Y-1581500D02*
Y-1645000D01*
X-2291130D01*
G01X-2248800D02*
X-2252860Y-1643940D01*
X-2256930Y-1639710D01*
X-2259640Y-1632300D01*
X-2260990Y-1623830D01*
X-2259640Y-1615370D01*
X-2256930Y-1607960D01*
X-2252860Y-1603730D01*
X-2248800Y-1602670D01*
X-2244740Y-1603730D01*
X-2240670Y-1607960D01*
X-2237960Y-1615370D01*
X-2237280Y-1623830D01*
X-2237960Y-1632300D01*
X-2240670Y-1639710D01*
X-2244740Y-1643940D01*
X-2248800Y-1645000D01*
G01X-2202400D02*
Y-1602670D01*
G01Y-1611130D02*
X-2199020Y-1606900D01*
X-2195630Y-1603730D01*
X-2190890Y-1602670D01*
X-2187500Y-1603730D01*
X-2183440Y-1606900D01*
G01X-2137040Y-1602670D02*
Y-1645000D01*
G01Y-1585730D02*
X-2138390Y-1584680D01*
Y-1582560D01*
X-2137040Y-1581500D01*
X-2135690Y-1582560D01*
Y-1584680D01*
X-2137040Y-1585730D01*
G01X-2091320Y-1637590D02*
X-2087930Y-1641830D01*
X-2083190Y-1645000D01*
X-2079130D01*
X-2075060Y-1642880D01*
X-2072350Y-1639710D01*
X-2071000Y-1635480D01*
X-2071680Y-1629120D01*
X-2074390Y-1625950D01*
X-2086580Y-1619600D01*
X-2089290Y-1612190D01*
X-2087930Y-1606900D01*
X-2085220Y-1603730D01*
X-2081160Y-1602670D01*
X-2077100Y-1603730D01*
X-2073030Y-1606900D01*
G01X-1982950Y-1645000D02*
Y-1581500D01*
X-1966690D01*
X-1961270Y-1584680D01*
X-1957210Y-1592080D01*
X-1955850Y-1600550D01*
X-1957210Y-1609020D01*
X-1960590Y-1615370D01*
X-1966690Y-1618540D01*
X-1982950D01*
G01X-1901330Y-1645000D02*
Y-1602670D01*
G01Y-1610070D02*
X-1904040Y-1605840D01*
X-1908100Y-1603730D01*
X-1912840Y-1602670D01*
X-1917580Y-1604780D01*
X-1921650Y-1609020D01*
X-1924360Y-1615370D01*
X-1925710Y-1623830D01*
X-1924360Y-1632300D01*
X-1921650Y-1638650D01*
X-1917580Y-1642880D01*
X-1912840Y-1645000D01*
X-1908100Y-1643940D01*
X-1904040Y-1640770D01*
X-1901330Y-1636540D01*
G01X-1869160Y-1645000D02*
Y-1602670D01*
G01Y-1613250D02*
X-1866450Y-1607960D01*
X-1862380Y-1603730D01*
X-1856960Y-1602670D01*
X-1852220Y-1603730D01*
X-1848160Y-1607960D01*
X-1846120Y-1615370D01*
Y-1645000D01*
G01X-1789570D02*
Y-1602670D01*
G01Y-1610070D02*
X-1792280Y-1605840D01*
X-1796340Y-1603730D01*
X-1801080Y-1602670D01*
X-1805820Y-1604780D01*
X-1809890Y-1609020D01*
X-1812600Y-1615370D01*
X-1813950Y-1623830D01*
X-1812600Y-1632300D01*
X-1809890Y-1638650D01*
X-1805820Y-1642880D01*
X-1801080Y-1645000D01*
X-1796340Y-1643940D01*
X-1792280Y-1640770D01*
X-1789570Y-1636540D01*
G01X-1755360Y-1645000D02*
Y-1602670D01*
G01Y-1611130D02*
X-1751980Y-1606900D01*
X-1748590Y-1603730D01*
X-1743850Y-1602670D01*
X-1740460Y-1603730D01*
X-1736400Y-1606900D01*
G01X-1690000Y-1645000D02*
X-1694060Y-1643940D01*
X-1698130Y-1639710D01*
X-1700840Y-1632300D01*
X-1702190Y-1623830D01*
X-1700840Y-1615370D01*
X-1698130Y-1607960D01*
X-1694060Y-1603730D01*
X-1690000Y-1602670D01*
X-1685940Y-1603730D01*
X-1681870Y-1607960D01*
X-1679160Y-1615370D01*
X-1678480Y-1623830D01*
X-1679160Y-1632300D01*
X-1681870Y-1639710D01*
X-1685940Y-1643940D01*
X-1690000Y-1645000D01*
G01X-2331610Y-1390000D02*
X-2314680Y-1326500D01*
X-2297750Y-1390000D01*
G01X-2303840Y-1367780D02*
X-2325520D01*
G01X-2258800Y-1392120D02*
X-2260150Y-1391060D01*
Y-1388940D01*
X-2258800Y-1387880D01*
X-2257450Y-1388940D01*
Y-1391060D01*
X-2258800Y-1392120D01*
G01X-2202920Y-1390000D02*
Y-1361430D01*
X-2216470Y-1326500D01*
G01X-2189370D02*
X-2202920Y-1361430D01*
G01X-2104030Y-1337080D02*
X-2099970Y-1330730D01*
X-2095220Y-1327560D01*
X-2089810Y-1326500D01*
X-2083030Y-1328620D01*
X-2078290Y-1333910D01*
X-2076940Y-1340260D01*
X-2077610Y-1346610D01*
X-2080320Y-1351900D01*
X-2093870Y-1362480D01*
X-2099970Y-1369890D01*
X-2104030Y-1380480D01*
X-2105380Y-1390000D01*
X-2076940D01*
G01X-2035280Y-1326500D02*
X-2040700Y-1328620D01*
X-2044760Y-1333910D01*
X-2047470Y-1340260D01*
X-2049500Y-1348730D01*
X-2050180Y-1358250D01*
X-2049500Y-1367780D01*
X-2047470Y-1376240D01*
X-2044760Y-1382590D01*
X-2040700Y-1387880D01*
X-2035280Y-1390000D01*
X-2029860Y-1387880D01*
X-2025800Y-1382590D01*
X-2023090Y-1376240D01*
X-2021060Y-1367780D01*
X-2020380Y-1358250D01*
X-2021060Y-1348730D01*
X-2023090Y-1340260D01*
X-2025800Y-1333910D01*
X-2029860Y-1328620D01*
X-2035280Y-1326500D01*
G01X-1992270Y-1337080D02*
X-1988210Y-1330730D01*
X-1983460Y-1327560D01*
X-1978050Y-1326500D01*
X-1971270Y-1328620D01*
X-1966530Y-1333910D01*
X-1965180Y-1340260D01*
X-1965850Y-1346610D01*
X-1968560Y-1351900D01*
X-1982110Y-1362480D01*
X-1988210Y-1369890D01*
X-1992270Y-1380480D01*
X-1993620Y-1390000D01*
X-1965180D01*
G01X-1936390Y-1337080D02*
X-1932330Y-1330730D01*
X-1927580Y-1327560D01*
X-1922170Y-1326500D01*
X-1915390Y-1328620D01*
X-1910650Y-1333910D01*
X-1909300Y-1340260D01*
X-1909970Y-1346610D01*
X-1912680Y-1351900D01*
X-1926230Y-1362480D01*
X-1932330Y-1369890D01*
X-1936390Y-1380480D01*
X-1937740Y-1390000D01*
X-1909300D01*
G01X-1876450Y-1368830D02*
X-1858830D01*
G01X-1824630Y-1337080D02*
X-1820570Y-1330730D01*
X-1815820Y-1327560D01*
X-1810410Y-1326500D01*
X-1803630Y-1328620D01*
X-1798890Y-1333910D01*
X-1797540Y-1340260D01*
X-1798210Y-1346610D01*
X-1800920Y-1351900D01*
X-1814470Y-1362480D01*
X-1820570Y-1369890D01*
X-1824630Y-1380480D01*
X-1825980Y-1390000D01*
X-1797540D01*
G01X-1770780Y-1377300D02*
X-1766720Y-1384710D01*
X-1761300Y-1388940D01*
X-1755200Y-1390000D01*
X-1749780Y-1388940D01*
X-1744360Y-1383650D01*
X-1740980Y-1377300D01*
X-1740300Y-1370950D01*
X-1741660Y-1363540D01*
X-1746400Y-1358250D01*
X-1751140Y-1356130D01*
X-1757230D01*
G01X-1751140D02*
X-1747070Y-1352960D01*
X-1743690Y-1347670D01*
X-1742330Y-1341320D01*
X-1743690Y-1334970D01*
X-1747070Y-1329680D01*
X-1753170Y-1326500D01*
X-1759270Y-1327560D01*
X-1765360Y-1331790D01*
G01X-2328230Y-1280000D02*
Y-1216500D01*
X-2311970D01*
X-2306550Y-1219680D01*
X-2302490Y-1227080D01*
X-2301130Y-1235550D01*
X-2302490Y-1244020D01*
X-2305870Y-1250370D01*
X-2311970Y-1253540D01*
X-2328230D01*
G01X-2258800Y-1280000D02*
X-2262860Y-1278940D01*
X-2266930Y-1274710D01*
X-2269640Y-1267300D01*
X-2270990Y-1258830D01*
X-2269640Y-1250370D01*
X-2266930Y-1242960D01*
X-2262860Y-1238730D01*
X-2258800Y-1237670D01*
X-2254740Y-1238730D01*
X-2250670Y-1242960D01*
X-2247960Y-1250370D01*
X-2247280Y-1258830D01*
X-2247960Y-1267300D01*
X-2250670Y-1274710D01*
X-2254740Y-1278940D01*
X-2258800Y-1280000D01*
G01X-2202920D02*
Y-1216500D01*
G01X-2161260Y-1299050D02*
X-2157200Y-1301170D01*
X-2151780Y-1299050D01*
X-2148390Y-1294820D01*
X-2145690Y-1289520D01*
X-2141620Y-1272590D01*
X-2132820Y-1237670D01*
G01X-2154490D02*
X-2141620Y-1272590D01*
G01X-2091160Y-1216500D02*
Y-1280000D01*
G01X-2100640Y-1237670D02*
X-2081680D01*
G01X-2045440Y-1251430D02*
X-2023760D01*
X-2025800Y-1244020D01*
X-2029180Y-1239780D01*
X-2033930Y-1237670D01*
X-2038670Y-1238730D01*
X-2042730Y-1241900D01*
X-2045440Y-1249310D01*
X-2046800Y-1255660D01*
Y-1262010D01*
X-2045440Y-1268360D01*
X-2042050Y-1274710D01*
X-2037990Y-1278940D01*
X-2033250Y-1280000D01*
X-2028510Y-1277880D01*
X-2023760Y-1271540D01*
G01X-1968560Y-1242960D02*
X-1973300Y-1238730D01*
X-1977370Y-1237670D01*
X-1982790Y-1239780D01*
X-1986850Y-1244020D01*
X-1989560Y-1251430D01*
X-1990240Y-1258830D01*
X-1989560Y-1266240D01*
X-1986850Y-1272590D01*
X-1982790Y-1277880D01*
X-1977370Y-1280000D01*
X-1972630Y-1277880D01*
X-1968560Y-1273650D01*
G01X-1935040Y-1280000D02*
Y-1216500D01*
G01Y-1247190D02*
X-1931650Y-1241900D01*
X-1928260Y-1238730D01*
X-1922840Y-1237670D01*
X-1918780Y-1238730D01*
X-1914040Y-1242960D01*
X-1912000Y-1249310D01*
Y-1280000D01*
G01X-1879160D02*
Y-1237670D01*
G01Y-1248250D02*
X-1876450Y-1242960D01*
X-1872380Y-1238730D01*
X-1866960Y-1237670D01*
X-1862220Y-1238730D01*
X-1858160Y-1242960D01*
X-1856120Y-1250370D01*
Y-1280000D01*
G01X-1811760Y-1237670D02*
Y-1280000D01*
G01Y-1220730D02*
X-1813110Y-1219680D01*
Y-1217560D01*
X-1811760Y-1216500D01*
X-1810410Y-1217560D01*
Y-1219680D01*
X-1811760Y-1220730D01*
G01X-1745040Y-1242960D02*
X-1749780Y-1238730D01*
X-1753850Y-1237670D01*
X-1759270Y-1239780D01*
X-1763330Y-1244020D01*
X-1766040Y-1251430D01*
X-1766720Y-1258830D01*
X-1766040Y-1266240D01*
X-1763330Y-1272590D01*
X-1759270Y-1277880D01*
X-1753850Y-1280000D01*
X-1749110Y-1277880D01*
X-1745040Y-1273650D01*
G01X-1644120Y-1280000D02*
X-1648180Y-1278940D01*
X-1652250Y-1274710D01*
X-1654960Y-1267300D01*
X-1656310Y-1258830D01*
X-1654960Y-1250370D01*
X-1652250Y-1242960D01*
X-1648180Y-1238730D01*
X-1644120Y-1237670D01*
X-1640060Y-1238730D01*
X-1635990Y-1242960D01*
X-1633280Y-1250370D01*
X-1632600Y-1258830D01*
X-1633280Y-1267300D01*
X-1635990Y-1274710D01*
X-1640060Y-1278940D01*
X-1644120Y-1280000D01*
G01X-1592300D02*
Y-1226020D01*
X-1590950Y-1220730D01*
X-1588240Y-1217560D01*
X-1584180Y-1216500D01*
X-1580110Y-1218620D01*
X-1578080Y-1223910D01*
G01X-1586210Y-1241900D02*
X-1599760D01*
G01X-1476480Y-1216500D02*
Y-1280000D01*
G01X-1492060Y-1216500D02*
X-1460900D01*
G01X-1432120Y-1237670D02*
Y-1267300D01*
X-1429410Y-1274710D01*
X-1425340Y-1278940D01*
X-1420600Y-1280000D01*
X-1415860Y-1278940D01*
X-1411790Y-1274710D01*
X-1409080Y-1267300D01*
G01Y-1280000D02*
Y-1237670D01*
G01X-1374200Y-1280000D02*
Y-1237670D01*
G01Y-1246130D02*
X-1370820Y-1241900D01*
X-1367430Y-1238730D01*
X-1362690Y-1237670D01*
X-1359300Y-1238730D01*
X-1355240Y-1241900D01*
G01X-1308840Y-1237670D02*
Y-1280000D01*
G01Y-1220730D02*
X-1310190Y-1219680D01*
Y-1217560D01*
X-1308840Y-1216500D01*
X-1307490Y-1217560D01*
Y-1219680D01*
X-1308840Y-1220730D01*
G01X-1264480Y-1280000D02*
Y-1237670D01*
G01Y-1248250D02*
X-1261770Y-1242960D01*
X-1257700Y-1238730D01*
X-1252280Y-1237670D01*
X-1247540Y-1238730D01*
X-1243480Y-1242960D01*
X-1241440Y-1250370D01*
Y-1280000D01*
G01X-2205000Y1386770D02*
X-2268500D01*
Y1403030D01*
X-2265320Y1408450D01*
X-2257920Y1412510D01*
X-2249450Y1413870D01*
X-2240980Y1412510D01*
X-2234630Y1409130D01*
X-2231460Y1403030D01*
Y1386770D01*
G01X-2205000Y1468390D02*
X-2247330D01*
G01X-2239930D02*
X-2244160Y1465680D01*
X-2246270Y1461620D01*
X-2247330Y1456880D01*
X-2245220Y1452140D01*
X-2240980Y1448070D01*
X-2234630Y1445360D01*
X-2226170Y1444010D01*
X-2217700Y1445360D01*
X-2211350Y1448070D01*
X-2207120Y1452140D01*
X-2205000Y1456880D01*
X-2206060Y1461620D01*
X-2209230Y1465680D01*
X-2213460Y1468390D01*
G01X-2268500Y1512080D02*
X-2205000D01*
G01X-2247330Y1502600D02*
Y1521560D01*
G01X-2242040Y1578800D02*
X-2246270Y1574060D01*
X-2247330Y1569990D01*
X-2245220Y1564570D01*
X-2240980Y1560510D01*
X-2233570Y1557800D01*
X-2226170Y1557120D01*
X-2218760Y1557800D01*
X-2212410Y1560510D01*
X-2207120Y1564570D01*
X-2205000Y1569990D01*
X-2207120Y1574730D01*
X-2211350Y1578800D01*
G01X-2205000Y1612320D02*
X-2268500D01*
G01X-2237810D02*
X-2243100Y1615710D01*
X-2246270Y1619100D01*
X-2247330Y1624520D01*
X-2246270Y1628580D01*
X-2242040Y1633320D01*
X-2235690Y1635360D01*
X-2205000D01*
G01X-2057040Y1385420D02*
X-2051750Y1389480D01*
X-2048580Y1394220D01*
X-2047520Y1400320D01*
X-2049640Y1406420D01*
X-2053870Y1411160D01*
X-2061280Y1414540D01*
X-2069740Y1415220D01*
X-2078210Y1413870D01*
X-2083500Y1410480D01*
X-2087740Y1405740D01*
X-2088790Y1401000D01*
X-2087740Y1396260D01*
X-2083500Y1390160D01*
X-2111020Y1392190D01*
Y1410480D01*
G01Y1456200D02*
X-2108900Y1450780D01*
X-2103610Y1446720D01*
X-2097260Y1444010D01*
X-2088790Y1441980D01*
X-2079270Y1441300D01*
X-2069740Y1441980D01*
X-2061280Y1444010D01*
X-2054930Y1446720D01*
X-2049640Y1450780D01*
X-2047520Y1456200D01*
X-2049640Y1461620D01*
X-2054930Y1465680D01*
X-2061280Y1468390D01*
X-2069740Y1470420D01*
X-2079270Y1471100D01*
X-2088790Y1470420D01*
X-2097260Y1468390D01*
X-2103610Y1465680D01*
X-2108900Y1461620D01*
X-2111020Y1456200D01*
G01X-2047520Y1512080D02*
X-2048580Y1508020D01*
X-2052810Y1503950D01*
X-2060220Y1501240D01*
X-2068690Y1499890D01*
X-2077150Y1501240D01*
X-2084560Y1503950D01*
X-2088790Y1508020D01*
X-2089850Y1512080D01*
X-2088790Y1516140D01*
X-2084560Y1520210D01*
X-2077150Y1522920D01*
X-2068690Y1523600D01*
X-2060220Y1522920D01*
X-2052810Y1520210D01*
X-2048580Y1516140D01*
X-2047520Y1512080D01*
G01Y1556440D02*
X-2111020D01*
G01X-2080330D02*
X-2085620Y1559830D01*
X-2088790Y1563220D01*
X-2089850Y1568640D01*
X-2088790Y1572700D01*
X-2084560Y1577440D01*
X-2078210Y1579480D01*
X-2047520D01*
G01Y1603520D02*
X-2089850D01*
G01X-2078210D02*
X-2083500Y1605550D01*
X-2087740Y1608940D01*
X-2089850Y1613680D01*
X-2087740Y1618420D01*
X-2083500Y1621810D01*
X-2078210Y1623840D01*
X-2047520D01*
G01X-2078210D02*
X-2083500Y1625870D01*
X-2087740Y1629260D01*
X-2089850Y1634000D01*
X-2087740Y1638740D01*
X-2083500Y1642130D01*
X-2077150Y1644160D01*
X-2047520D01*
G01X-2126260Y1412510D02*
X-2168590D01*
G01X-2161190D02*
X-2165420Y1409800D01*
X-2167530Y1405740D01*
X-2168590Y1401000D01*
X-2166480Y1396260D01*
X-2162240Y1392190D01*
X-2155890Y1389480D01*
X-2147430Y1388130D01*
X-2138960Y1389480D01*
X-2132610Y1392190D01*
X-2128380Y1396260D01*
X-2126260Y1401000D01*
X-2127320Y1405740D01*
X-2130490Y1409800D01*
X-2134720Y1412510D01*
G01X-2126260Y1444680D02*
X-2168590D01*
G01X-2158010D02*
X-2163300Y1447390D01*
X-2167530Y1451460D01*
X-2168590Y1456880D01*
X-2167530Y1461620D01*
X-2163300Y1465680D01*
X-2155890Y1467720D01*
X-2126260D01*
G01X-2189760Y1512080D02*
X-2126260D01*
G01X-2168590Y1502600D02*
Y1521560D01*
G01X-2154830Y1557800D02*
Y1579480D01*
X-2162240Y1577440D01*
X-2166480Y1574060D01*
X-2168590Y1569310D01*
X-2167530Y1564570D01*
X-2164360Y1560510D01*
X-2156950Y1557800D01*
X-2150600Y1556440D01*
X-2144250D01*
X-2137900Y1557800D01*
X-2131550Y1561190D01*
X-2127320Y1565250D01*
X-2126260Y1569990D01*
X-2128380Y1574730D01*
X-2134720Y1579480D01*
G01X-2126260Y1612320D02*
X-2168590D01*
G01X-2158010D02*
X-2163300Y1615030D01*
X-2167530Y1619100D01*
X-2168590Y1624520D01*
X-2167530Y1629260D01*
X-2163300Y1633320D01*
X-2155890Y1635360D01*
X-2126260D01*
G01Y1668200D02*
X-2168590D01*
G01X-2158010D02*
X-2163300Y1670910D01*
X-2167530Y1674980D01*
X-2168590Y1680400D01*
X-2167530Y1685140D01*
X-2163300Y1689200D01*
X-2155890Y1691240D01*
X-2126260D01*
G01Y1747790D02*
X-2168590D01*
G01X-2161190D02*
X-2165420Y1745080D01*
X-2167530Y1741020D01*
X-2168590Y1736280D01*
X-2166480Y1731540D01*
X-2162240Y1727470D01*
X-2155890Y1724760D01*
X-2147430Y1723410D01*
X-2138960Y1724760D01*
X-2132610Y1727470D01*
X-2128380Y1731540D01*
X-2126260Y1736280D01*
X-2127320Y1741020D01*
X-2130490Y1745080D01*
X-2134720Y1747790D01*
G01X-1534840Y-1752590D02*
X-1531450Y-1756830D01*
X-1526710Y-1760000D01*
X-1522650D01*
X-1518580Y-1757880D01*
X-1515870Y-1754710D01*
X-1514520Y-1750480D01*
X-1515200Y-1744120D01*
X-1517910Y-1740950D01*
X-1530100Y-1734600D01*
X-1532810Y-1727190D01*
X-1531450Y-1721900D01*
X-1528740Y-1718730D01*
X-1524680Y-1717670D01*
X-1520620Y-1718730D01*
X-1516550Y-1721900D01*
G01X-1483700Y-1747300D02*
X-1479640Y-1754710D01*
X-1474220Y-1758940D01*
X-1468120Y-1760000D01*
X-1462700Y-1758940D01*
X-1457280Y-1753650D01*
X-1453900Y-1747300D01*
X-1453220Y-1740950D01*
X-1454580Y-1733540D01*
X-1459320Y-1728250D01*
X-1464060Y-1726130D01*
X-1470150D01*
G01X-1464060D02*
X-1459990Y-1722960D01*
X-1456610Y-1717670D01*
X-1455250Y-1711320D01*
X-1456610Y-1704970D01*
X-1459990Y-1699680D01*
X-1466090Y-1696500D01*
X-1472190Y-1697560D01*
X-1478280Y-1701790D01*
G01X-1412920Y-1696500D02*
X-1418340Y-1698620D01*
X-1422400Y-1703910D01*
X-1425110Y-1710260D01*
X-1427140Y-1718730D01*
X-1427820Y-1728250D01*
X-1427140Y-1737780D01*
X-1425110Y-1746240D01*
X-1422400Y-1752590D01*
X-1418340Y-1757880D01*
X-1412920Y-1760000D01*
X-1407500Y-1757880D01*
X-1403440Y-1752590D01*
X-1400730Y-1746240D01*
X-1398700Y-1737780D01*
X-1398020Y-1728250D01*
X-1398700Y-1718730D01*
X-1400730Y-1710260D01*
X-1403440Y-1703910D01*
X-1407500Y-1698620D01*
X-1412920Y-1696500D01*
G01X-1348910Y-1760000D02*
Y-1696500D01*
X-1373970Y-1742010D01*
X-1340110D01*
G01X-1301160Y-1696500D02*
X-1306580Y-1698620D01*
X-1310640Y-1703910D01*
X-1313350Y-1710260D01*
X-1315380Y-1718730D01*
X-1316060Y-1728250D01*
X-1315380Y-1737780D01*
X-1313350Y-1746240D01*
X-1310640Y-1752590D01*
X-1306580Y-1757880D01*
X-1301160Y-1760000D01*
X-1295740Y-1757880D01*
X-1291680Y-1752590D01*
X-1288970Y-1746240D01*
X-1286940Y-1737780D01*
X-1286260Y-1728250D01*
X-1286940Y-1718730D01*
X-1288970Y-1710260D01*
X-1291680Y-1703910D01*
X-1295740Y-1698620D01*
X-1301160Y-1696500D01*
G01X-1258150Y-1733540D02*
X-1253410Y-1726130D01*
X-1249340Y-1721900D01*
X-1243930Y-1719780D01*
X-1239180Y-1721900D01*
X-1235800Y-1726130D01*
X-1233090Y-1732480D01*
X-1232410Y-1739890D01*
X-1233090Y-1746240D01*
X-1235800Y-1752590D01*
X-1239860Y-1757880D01*
X-1244600Y-1760000D01*
X-1250020Y-1757880D01*
X-1254760Y-1751540D01*
X-1257470Y-1742010D01*
X-1258150Y-1731430D01*
X-1256800Y-1717670D01*
X-1254760Y-1710260D01*
X-1251380Y-1702850D01*
X-1246630Y-1697560D01*
X-1241890Y-1696500D01*
X-1237150Y-1698620D01*
X-1233760Y-1703910D01*
G01X-1204300Y-1747300D02*
X-1200240Y-1754710D01*
X-1194820Y-1758940D01*
X-1188720Y-1760000D01*
X-1183300Y-1758940D01*
X-1177880Y-1753650D01*
X-1174500Y-1747300D01*
X-1173820Y-1740950D01*
X-1175180Y-1733540D01*
X-1179920Y-1728250D01*
X-1184660Y-1726130D01*
X-1190750D01*
G01X-1184660D02*
X-1180590Y-1722960D01*
X-1177210Y-1717670D01*
X-1175850Y-1711320D01*
X-1177210Y-1704970D01*
X-1180590Y-1699680D01*
X-1186690Y-1696500D01*
X-1192790Y-1697560D01*
X-1198880Y-1701790D01*
G01X-1639260Y-1496130D02*
X-1636550Y-1492960D01*
X-1634520Y-1487670D01*
X-1633160Y-1480260D01*
X-1634520Y-1473910D01*
X-1637230Y-1469680D01*
X-1641970Y-1466500D01*
X-1660260D01*
Y-1530000D01*
X-1637910D01*
X-1633160Y-1525770D01*
X-1630460Y-1519420D01*
X-1629100Y-1512010D01*
X-1630460Y-1504600D01*
X-1634520Y-1498250D01*
X-1639260Y-1496130D01*
X-1660260D01*
G01X-1588800Y-1530000D02*
Y-1466500D01*
G01X-1544440Y-1487670D02*
Y-1517300D01*
X-1541730Y-1524710D01*
X-1537660Y-1528940D01*
X-1532920Y-1530000D01*
X-1528180Y-1528940D01*
X-1524110Y-1524710D01*
X-1521400Y-1517300D01*
G01Y-1530000D02*
Y-1487670D01*
G01X-1487200Y-1501430D02*
X-1465520D01*
X-1467560Y-1494020D01*
X-1470940Y-1489780D01*
X-1475690Y-1487670D01*
X-1480430Y-1488730D01*
X-1484490Y-1491900D01*
X-1487200Y-1499310D01*
X-1488560Y-1505660D01*
Y-1512010D01*
X-1487200Y-1518360D01*
X-1483810Y-1524710D01*
X-1479750Y-1528940D01*
X-1475010Y-1530000D01*
X-1470270Y-1527880D01*
X-1465520Y-1521540D01*
G01X-1421160Y-1466500D02*
Y-1530000D01*
G01X-1430640Y-1487670D02*
X-1411680D01*
G01X-1365280Y-1530000D02*
X-1369340Y-1528940D01*
X-1373410Y-1524710D01*
X-1376120Y-1517300D01*
X-1377470Y-1508830D01*
X-1376120Y-1500370D01*
X-1373410Y-1492960D01*
X-1369340Y-1488730D01*
X-1365280Y-1487670D01*
X-1361220Y-1488730D01*
X-1357150Y-1492960D01*
X-1354440Y-1500370D01*
X-1353760Y-1508830D01*
X-1354440Y-1517300D01*
X-1357150Y-1524710D01*
X-1361220Y-1528940D01*
X-1365280Y-1530000D01*
G01X-1309400D02*
X-1313460Y-1528940D01*
X-1317530Y-1524710D01*
X-1320240Y-1517300D01*
X-1321590Y-1508830D01*
X-1320240Y-1500370D01*
X-1317530Y-1492960D01*
X-1313460Y-1488730D01*
X-1309400Y-1487670D01*
X-1305340Y-1488730D01*
X-1301270Y-1492960D01*
X-1298560Y-1500370D01*
X-1297880Y-1508830D01*
X-1298560Y-1517300D01*
X-1301270Y-1524710D01*
X-1305340Y-1528940D01*
X-1309400Y-1530000D01*
G01X-1253520Y-1466500D02*
Y-1530000D01*
G01X-1263000Y-1487670D02*
X-1244040D01*
G01X-1209160Y-1530000D02*
Y-1466500D01*
G01Y-1497190D02*
X-1205770Y-1491900D01*
X-1202380Y-1488730D01*
X-1196960Y-1487670D01*
X-1192900Y-1488730D01*
X-1188160Y-1492960D01*
X-1186120Y-1499310D01*
Y-1530000D01*
G01X-1100100Y-1521540D02*
X-1094690Y-1526830D01*
X-1088590Y-1530000D01*
X-1083170D01*
X-1077750Y-1526830D01*
X-1073690Y-1521540D01*
X-1071660Y-1514120D01*
X-1073010Y-1506720D01*
X-1076400Y-1500370D01*
X-1082490Y-1496130D01*
X-1090620Y-1494020D01*
X-1095360Y-1489780D01*
X-1097400Y-1482380D01*
X-1096040Y-1474970D01*
X-1092650Y-1469680D01*
X-1087910Y-1466500D01*
X-1083170D01*
X-1078430Y-1468620D01*
X-1074360Y-1473910D01*
G01X-1040160Y-1501430D02*
X-1018480D01*
X-1020520Y-1494020D01*
X-1023900Y-1489780D01*
X-1028650Y-1487670D01*
X-1033390Y-1488730D01*
X-1037450Y-1491900D01*
X-1040160Y-1499310D01*
X-1041520Y-1505660D01*
Y-1512010D01*
X-1040160Y-1518360D01*
X-1036770Y-1524710D01*
X-1032710Y-1528940D01*
X-1027970Y-1530000D01*
X-1023230Y-1527880D01*
X-1018480Y-1521540D01*
G01X-985640Y-1530000D02*
Y-1487670D01*
G01Y-1498250D02*
X-982930Y-1492960D01*
X-978860Y-1488730D01*
X-973440Y-1487670D01*
X-968700Y-1488730D01*
X-964640Y-1492960D01*
X-962600Y-1500370D01*
Y-1530000D01*
G01X-928400Y-1522590D02*
X-925010Y-1526830D01*
X-920270Y-1530000D01*
X-916210D01*
X-912140Y-1527880D01*
X-909430Y-1524710D01*
X-908080Y-1520480D01*
X-908760Y-1514120D01*
X-911470Y-1510950D01*
X-923660Y-1504600D01*
X-926370Y-1497190D01*
X-925010Y-1491900D01*
X-922300Y-1488730D01*
X-918240Y-1487670D01*
X-914180Y-1488730D01*
X-910110Y-1491900D01*
G01X-862360Y-1530000D02*
X-866420Y-1528940D01*
X-870490Y-1524710D01*
X-873200Y-1517300D01*
X-874550Y-1508830D01*
X-873200Y-1500370D01*
X-870490Y-1492960D01*
X-866420Y-1488730D01*
X-862360Y-1487670D01*
X-858300Y-1488730D01*
X-854230Y-1492960D01*
X-851520Y-1500370D01*
X-850840Y-1508830D01*
X-851520Y-1517300D01*
X-854230Y-1524710D01*
X-858300Y-1528940D01*
X-862360Y-1530000D01*
G01X-815960D02*
Y-1487670D01*
G01Y-1496130D02*
X-812580Y-1491900D01*
X-809190Y-1488730D01*
X-804450Y-1487670D01*
X-801060Y-1488730D01*
X-797000Y-1491900D01*
G01X-1544840Y-1632590D02*
X-1541450Y-1636830D01*
X-1536710Y-1640000D01*
X-1532650D01*
X-1528580Y-1637880D01*
X-1525870Y-1634710D01*
X-1524520Y-1630480D01*
X-1525200Y-1624120D01*
X-1527910Y-1620950D01*
X-1540100Y-1614600D01*
X-1542810Y-1607190D01*
X-1541450Y-1601900D01*
X-1538740Y-1598730D01*
X-1534680Y-1597670D01*
X-1530620Y-1598730D01*
X-1526550Y-1601900D01*
G01X-1493700Y-1627300D02*
X-1489640Y-1634710D01*
X-1484220Y-1638940D01*
X-1478120Y-1640000D01*
X-1472700Y-1638940D01*
X-1467280Y-1633650D01*
X-1463900Y-1627300D01*
X-1463220Y-1620950D01*
X-1464580Y-1613540D01*
X-1469320Y-1608250D01*
X-1474060Y-1606130D01*
X-1480150D01*
G01X-1474060D02*
X-1469990Y-1602960D01*
X-1466610Y-1597670D01*
X-1465250Y-1591320D01*
X-1466610Y-1584970D01*
X-1469990Y-1579680D01*
X-1476090Y-1576500D01*
X-1482190Y-1577560D01*
X-1488280Y-1581790D01*
G01X-1422920Y-1576500D02*
X-1428340Y-1578620D01*
X-1432400Y-1583910D01*
X-1435110Y-1590260D01*
X-1437140Y-1598730D01*
X-1437820Y-1608250D01*
X-1437140Y-1617780D01*
X-1435110Y-1626240D01*
X-1432400Y-1632590D01*
X-1428340Y-1637880D01*
X-1422920Y-1640000D01*
X-1417500Y-1637880D01*
X-1413440Y-1632590D01*
X-1410730Y-1626240D01*
X-1408700Y-1617780D01*
X-1408020Y-1608250D01*
X-1408700Y-1598730D01*
X-1410730Y-1590260D01*
X-1413440Y-1583910D01*
X-1417500Y-1578620D01*
X-1422920Y-1576500D01*
G01X-1358910Y-1640000D02*
Y-1576500D01*
X-1383970Y-1622010D01*
X-1350110D01*
G01X-1311160Y-1640000D02*
X-1306420Y-1638940D01*
X-1301000Y-1635770D01*
X-1297610Y-1630480D01*
X-1296260Y-1623070D01*
X-1297610Y-1615660D01*
X-1301680Y-1609310D01*
X-1307770Y-1606130D01*
X-1314550D01*
X-1318610Y-1604020D01*
X-1322000Y-1598730D01*
X-1323350Y-1591320D01*
X-1321320Y-1583910D01*
X-1316580Y-1578620D01*
X-1311160Y-1576500D01*
X-1305740Y-1578620D01*
X-1301000Y-1583910D01*
X-1298970Y-1591320D01*
X-1300320Y-1598730D01*
X-1303710Y-1604020D01*
X-1307770Y-1606130D01*
X-1314550D01*
X-1320640Y-1609310D01*
X-1324710Y-1615660D01*
X-1326060Y-1623070D01*
X-1324710Y-1630480D01*
X-1321320Y-1635770D01*
X-1315900Y-1638940D01*
X-1311160Y-1640000D01*
G01X-1255280D02*
X-1250540Y-1638940D01*
X-1245120Y-1635770D01*
X-1241730Y-1630480D01*
X-1240380Y-1623070D01*
X-1241730Y-1615660D01*
X-1245800Y-1609310D01*
X-1251890Y-1606130D01*
X-1258670D01*
X-1262730Y-1604020D01*
X-1266120Y-1598730D01*
X-1267470Y-1591320D01*
X-1265440Y-1583910D01*
X-1260700Y-1578620D01*
X-1255280Y-1576500D01*
X-1249860Y-1578620D01*
X-1245120Y-1583910D01*
X-1243090Y-1591320D01*
X-1244440Y-1598730D01*
X-1247830Y-1604020D01*
X-1251890Y-1606130D01*
X-1258670D01*
X-1264760Y-1609310D01*
X-1268830Y-1615660D01*
X-1270180Y-1623070D01*
X-1268830Y-1630480D01*
X-1265440Y-1635770D01*
X-1260020Y-1638940D01*
X-1255280Y-1640000D01*
G01X-1199400Y-1576500D02*
X-1204820Y-1578620D01*
X-1208880Y-1583910D01*
X-1211590Y-1590260D01*
X-1213620Y-1598730D01*
X-1214300Y-1608250D01*
X-1213620Y-1617780D01*
X-1211590Y-1626240D01*
X-1208880Y-1632590D01*
X-1204820Y-1637880D01*
X-1199400Y-1640000D01*
X-1193980Y-1637880D01*
X-1189920Y-1632590D01*
X-1187210Y-1626240D01*
X-1185180Y-1617780D01*
X-1184500Y-1608250D01*
X-1185180Y-1598730D01*
X-1187210Y-1590260D01*
X-1189920Y-1583910D01*
X-1193980Y-1578620D01*
X-1199400Y-1576500D01*
G01X-1227500Y52500D02*
Y137500D01*
X-1382500D01*
Y52500D01*
X-1227500D01*
G01X75000Y1390000D02*
Y2097500D01*
X-1325000D01*
Y1390000D01*
X75000D01*
G01X-837500Y52500D02*
Y137500D01*
X-992500D01*
Y52500D01*
X-837500D01*
G01X-1027500Y-197500D02*
X-942500D01*
Y-42500D01*
X-1027500D01*
Y-197500D01*
G01X-366500Y-1486770D02*
X-430000D01*
Y-1513870D01*
G01Y-1569750D02*
Y-1542650D01*
X-366500D01*
Y-1569750D01*
G01X-397190Y-1558910D02*
Y-1542650D01*
G01X-430000Y-1597180D02*
X-366500D01*
Y-1610730D01*
X-369680Y-1616140D01*
X-373910Y-1620210D01*
X-380260Y-1623600D01*
X-387670Y-1626300D01*
X-398250Y-1626980D01*
X-408830Y-1626300D01*
X-416240Y-1623600D01*
X-422590Y-1620210D01*
X-426830Y-1616140D01*
X-430000Y-1610730D01*
Y-1597180D01*
G01Y-1667960D02*
X-366500D01*
X-379200Y-1659830D01*
G01X-430000D02*
Y-1676090D01*
G01X-507500Y-1357500D02*
X-422500D01*
Y-1202500D01*
X-507500D01*
Y-1357500D01*
G01X-505500Y-1485870D02*
X-549000D01*
G01X-542480D02*
X-546100Y-1484150D01*
X-548270Y-1482430D01*
X-549000Y-1479680D01*
X-548270Y-1477270D01*
X-544650Y-1474860D01*
X-539570Y-1473830D01*
X-534500Y-1473490D01*
X-529420Y-1473830D01*
X-524350Y-1474860D01*
X-521450Y-1476930D01*
X-520000Y-1479680D01*
X-520720Y-1482090D01*
X-522900Y-1484500D01*
X-525800Y-1485870D01*
G01X-495000Y-1620000D02*
X-435000D01*
Y-1520000D01*
X-495000D01*
Y-1620000D01*
G01X-792500Y-937500D02*
X-707500D01*
Y-782500D01*
X-792500D01*
Y-937500D01*
G01X-542500D02*
X-457500D01*
Y-782500D01*
X-542500D01*
Y-937500D01*
G01X-845000Y-355000D02*
Y-675000D01*
X-405000D01*
Y-355000D01*
X-845000D01*
G01X-487500Y-42500D02*
Y42500D01*
X-642500D01*
Y-42500D01*
X-487500D01*
G01X-827500Y-197500D02*
X-742500D01*
Y-42500D01*
X-827500D01*
Y-197500D01*
G01X-807500Y517500D02*
Y432500D01*
X-652500D01*
Y517500D01*
X-807500D01*
G01X-507500Y392500D02*
Y307500D01*
X-352500D01*
Y392500D01*
X-507500D01*
G01X-176500Y-1491770D02*
X-240000D01*
Y-1518870D01*
G01Y-1574750D02*
Y-1547650D01*
X-176500D01*
Y-1574750D01*
G01X-207190Y-1563910D02*
Y-1547650D01*
G01X-240000Y-1602180D02*
X-176500D01*
Y-1615730D01*
X-179680Y-1621140D01*
X-183910Y-1625210D01*
X-190260Y-1628600D01*
X-197670Y-1631300D01*
X-208250Y-1631980D01*
X-218830Y-1631300D01*
X-226240Y-1628600D01*
X-232590Y-1625210D01*
X-236830Y-1621140D01*
X-240000Y-1615730D01*
Y-1602180D01*
G01X-187080Y-1660090D02*
X-180730Y-1664150D01*
X-177560Y-1668900D01*
X-176500Y-1674310D01*
X-178620Y-1681090D01*
X-183910Y-1685830D01*
X-190260Y-1687180D01*
X-196610Y-1686510D01*
X-201900Y-1683800D01*
X-212480Y-1670250D01*
X-219890Y-1664150D01*
X-230480Y-1660090D01*
X-240000Y-1658740D01*
Y-1687180D01*
G01X18500Y-1491770D02*
X-45000D01*
Y-1518870D01*
G01Y-1574750D02*
Y-1547650D01*
X18500D01*
Y-1574750D01*
G01X-12190Y-1563910D02*
Y-1547650D01*
G01X-45000Y-1602180D02*
X18500D01*
Y-1615730D01*
X15320Y-1621140D01*
X11090Y-1625210D01*
X4740Y-1628600D01*
X-2670Y-1631300D01*
X-13250Y-1631980D01*
X-23830Y-1631300D01*
X-31240Y-1628600D01*
X-37590Y-1625210D01*
X-41830Y-1621140D01*
X-45000Y-1615730D01*
Y-1602180D01*
G01X-32300Y-1658060D02*
X-39710Y-1662120D01*
X-43940Y-1667540D01*
X-45000Y-1673640D01*
X-43940Y-1679060D01*
X-38650Y-1684480D01*
X-32300Y-1687860D01*
X-25950Y-1688540D01*
X-18540Y-1687180D01*
X-13250Y-1682440D01*
X-11130Y-1677700D01*
Y-1671610D01*
G01Y-1677700D02*
X-7960Y-1681770D01*
X-2670Y-1685150D01*
X3680Y-1686510D01*
X10030Y-1685150D01*
X15320Y-1681770D01*
X18500Y-1675670D01*
X17440Y-1669570D01*
X13210Y-1663480D01*
G01X-317500Y-1357500D02*
X-232500D01*
Y-1202500D01*
X-317500D01*
Y-1357500D01*
G01X-137500D02*
X-52500D01*
Y-1202500D01*
X-137500D01*
Y-1357500D01*
G01X-315500Y-1485870D02*
X-359000D01*
G01X-352480D02*
X-356100Y-1484150D01*
X-358270Y-1482430D01*
X-359000Y-1479680D01*
X-358270Y-1477270D01*
X-354650Y-1474860D01*
X-349570Y-1473830D01*
X-344500Y-1473490D01*
X-339420Y-1473830D01*
X-334350Y-1474860D01*
X-331450Y-1476930D01*
X-330000Y-1479680D01*
X-330720Y-1482090D01*
X-332900Y-1484500D01*
X-335800Y-1485870D01*
G01X-305000Y-1620000D02*
X-245000D01*
Y-1520000D01*
X-305000D01*
Y-1620000D01*
G01X-135500Y-1485870D02*
X-179000D01*
G01X-172480D02*
X-176100Y-1484150D01*
X-178270Y-1482430D01*
X-179000Y-1479680D01*
X-178270Y-1477270D01*
X-174650Y-1474860D01*
X-169570Y-1473830D01*
X-164500Y-1473490D01*
X-159420Y-1473830D01*
X-154350Y-1474860D01*
X-151450Y-1476930D01*
X-150000Y-1479680D01*
X-150720Y-1482090D01*
X-152900Y-1484500D01*
X-155800Y-1485870D01*
G01X-125000Y-1620000D02*
X-65000D01*
Y-1520000D01*
X-125000D01*
Y-1620000D01*
G01X2500Y-1082500D02*
X87500D01*
Y-927500D01*
X2500D01*
Y-1082500D01*
G01Y-777500D02*
X87500D01*
Y-622500D01*
X2500D01*
Y-777500D01*
G01X-237500Y237500D02*
Y-247500D01*
X247500D01*
Y237500D01*
X-237500D01*
G01X-22500Y982500D02*
X-107500D01*
Y827500D01*
X-22500D01*
Y982500D01*
G01X215000Y-645000D02*
Y-1445000D01*
X915000D01*
Y-645000D01*
X215000D01*
G01X275500Y-1414500D02*
G03I-30000J0D01*
G01X562500Y-392500D02*
Y-307500D01*
X407500D01*
Y-392500D01*
X562500D01*
G01X182500Y497500D02*
X267500D01*
Y652500D01*
X182500D01*
Y497500D01*
G01X342500Y357500D02*
X427500D01*
Y512500D01*
X342500D01*
Y357500D01*
G01X147500Y982500D02*
X62500D01*
Y827500D01*
X147500D01*
Y982500D01*
G01X482500Y1052500D02*
Y1137500D01*
X327500D01*
Y1052500D01*
X482500D01*
G01X247500Y1382500D02*
Y1297500D01*
X402500D01*
Y1382500D01*
X247500D01*
G01Y1572500D02*
Y1487500D01*
X402500D01*
Y1572500D01*
X247500D01*
G01X962500Y-467500D02*
Y-382500D01*
X807500D01*
Y-467500D01*
X962500D01*
G01Y-227500D02*
Y-142500D01*
X807500D01*
Y-227500D01*
X962500D01*
G01X1085000Y1140000D02*
X585000D01*
Y640000D01*
X1085000D01*
Y1140000D01*
G01X695000Y1280000D02*
X875000D01*
Y1590000D01*
X695000D01*
Y1280000D01*
G01X1572500Y-972500D02*
Y-887500D01*
X1417500D01*
Y-972500D01*
X1572500D01*
G01Y-402500D02*
Y-317500D01*
X1417500D01*
Y-402500D01*
X1572500D01*
G01X1417500Y-482500D02*
Y-567500D01*
X1572500D01*
Y-482500D01*
X1417500D01*
G01Y-672500D02*
Y-757500D01*
X1572500D01*
Y-672500D01*
X1417500D01*
G01X1452500Y557500D02*
X1367500D01*
Y402500D01*
X1452500D01*
Y557500D01*
G01X1230000Y518000D02*
X1010000D01*
Y452000D01*
X1230000D01*
Y518000D01*
G01X1276000Y555000D02*
G03I-25000J0D01*
G01X1136500Y1326770D02*
X1200000D01*
Y1353870D01*
G01Y1409750D02*
Y1382650D01*
X1136500D01*
Y1409750D01*
G01X1167190Y1398910D02*
Y1382650D01*
G01X1200000Y1437180D02*
X1136500D01*
Y1450730D01*
X1139680Y1456140D01*
X1143910Y1460210D01*
X1150260Y1463600D01*
X1157670Y1466300D01*
X1168250Y1466980D01*
X1178830Y1466300D01*
X1186240Y1463600D01*
X1192590Y1460210D01*
X1196830Y1456140D01*
X1200000Y1450730D01*
Y1437180D01*
G01X1192590Y1553680D02*
X1196830Y1557070D01*
X1200000Y1561810D01*
Y1565870D01*
X1197880Y1569940D01*
X1194710Y1572650D01*
X1190480Y1574000D01*
X1184120Y1573320D01*
X1180950Y1570610D01*
X1174600Y1558420D01*
X1167190Y1555710D01*
X1161900Y1557070D01*
X1158730Y1559780D01*
X1157670Y1563840D01*
X1158730Y1567900D01*
X1161900Y1571970D01*
G01X1136500Y1619720D02*
X1200000D01*
G01X1157670Y1610240D02*
Y1629200D01*
G01X1200000Y1687790D02*
X1157670D01*
G01X1165070D02*
X1160840Y1685080D01*
X1158730Y1681020D01*
X1157670Y1676280D01*
X1159780Y1671540D01*
X1164020Y1667470D01*
X1170370Y1664760D01*
X1178830Y1663410D01*
X1187300Y1664760D01*
X1193650Y1667470D01*
X1197880Y1671540D01*
X1200000Y1676280D01*
X1198940Y1681020D01*
X1195770Y1685080D01*
X1191540Y1687790D01*
G01X1136500Y1731480D02*
X1200000D01*
G01X1157670Y1722000D02*
Y1740960D01*
G01Y1775840D02*
X1187300D01*
X1194710Y1778550D01*
X1198940Y1782620D01*
X1200000Y1787360D01*
X1198940Y1792100D01*
X1194710Y1796170D01*
X1187300Y1798880D01*
G01X1200000D02*
X1157670D01*
G01X1192590Y1833080D02*
X1196830Y1836470D01*
X1200000Y1841210D01*
Y1845270D01*
X1197880Y1849340D01*
X1194710Y1852050D01*
X1190480Y1853400D01*
X1184120Y1852720D01*
X1180950Y1850010D01*
X1174600Y1837820D01*
X1167190Y1835110D01*
X1161900Y1836470D01*
X1158730Y1839180D01*
X1157670Y1843240D01*
X1158730Y1847300D01*
X1161900Y1851370D01*
G01X1237500Y1157500D02*
X1152500D01*
Y1002500D01*
X1237500D01*
Y1157500D01*
G01X1390000Y1430000D02*
X1450000D01*
Y1530000D01*
X1390000D01*
Y1430000D01*
G01X1220000Y1340000D02*
X1280000D01*
Y1440000D01*
X1220000D01*
Y1340000D01*
G01X1207500Y1647500D02*
X1292500D01*
Y1802500D01*
X1207500D01*
Y1647500D01*
G01X1379500Y1564130D02*
X1336000D01*
G01X1342520D02*
X1338900Y1565850D01*
X1336730Y1567570D01*
X1336000Y1570320D01*
X1336730Y1572730D01*
X1340350Y1575140D01*
X1345430Y1576170D01*
X1350500Y1576510D01*
X1355580Y1576170D01*
X1360650Y1575140D01*
X1363550Y1573070D01*
X1365000Y1570320D01*
X1364280Y1567910D01*
X1362100Y1565500D01*
X1359200Y1564130D01*
G01X1209500Y1474130D02*
X1166000D01*
G01X1172520D02*
X1168900Y1475850D01*
X1166730Y1477570D01*
X1166000Y1480320D01*
X1166730Y1482730D01*
X1170350Y1485140D01*
X1175430Y1486170D01*
X1180500Y1486510D01*
X1185580Y1486170D01*
X1190650Y1485140D01*
X1193550Y1483070D01*
X1195000Y1480320D01*
X1194280Y1477910D01*
X1192100Y1475500D01*
X1189200Y1474130D01*
G01X2670000Y-825000D02*
X1770000D01*
Y-1725000D01*
X2670000D01*
Y-825000D01*
G01X1657500Y557500D02*
X1572500D01*
Y402500D01*
X1657500D01*
Y557500D01*
G01X2235000Y1820000D02*
X1735000D01*
Y890000D01*
X2235000D01*
Y1820000D01*
G01X1528500Y1608230D02*
X1465000D01*
Y1581130D01*
G01Y1525250D02*
Y1552350D01*
X1528500D01*
Y1525250D01*
G01X1497810Y1536090D02*
Y1552350D01*
G01X1465000Y1497820D02*
X1528500D01*
Y1484270D01*
X1525320Y1478860D01*
X1521090Y1474790D01*
X1514740Y1471400D01*
X1507330Y1468700D01*
X1496750Y1468020D01*
X1486170Y1468700D01*
X1478760Y1471400D01*
X1472410Y1474790D01*
X1468170Y1478860D01*
X1465000Y1484270D01*
Y1497820D01*
G01X1443830Y1383350D02*
X1507330D01*
G01X1497810D02*
X1503100Y1379970D01*
X1506270Y1376580D01*
X1507330Y1371160D01*
X1506270Y1366420D01*
X1500980Y1361680D01*
X1493570Y1359640D01*
X1486170Y1358970D01*
X1478760Y1359640D01*
X1471350Y1361680D01*
X1467120Y1365740D01*
X1465000Y1371160D01*
X1466060Y1375900D01*
X1469230Y1380640D01*
X1473460Y1383350D01*
G01X1465000Y1315280D02*
X1466060Y1319340D01*
X1470290Y1323410D01*
X1477700Y1326120D01*
X1486170Y1327470D01*
X1494630Y1326120D01*
X1502040Y1323410D01*
X1506270Y1319340D01*
X1507330Y1315280D01*
X1506270Y1311220D01*
X1502040Y1307150D01*
X1494630Y1304440D01*
X1486170Y1303760D01*
X1477700Y1304440D01*
X1470290Y1307150D01*
X1466060Y1311220D01*
X1465000Y1315280D01*
G01X1507330Y1276330D02*
X1465000Y1268210D01*
X1507330Y1259400D01*
X1465000Y1250590D01*
X1507330Y1242470D01*
G01X1632500Y1537500D02*
X1547500D01*
Y1382500D01*
X1632500D01*
Y1537500D01*
G01X2345000Y710000D02*
X1945000D01*
Y-290000D01*
X2345000D01*
Y710000D01*
G01X2005000Y680000D02*
G03I-30000J0D01*
G01X2130000Y1230000D02*
G03I-50000J0D01*
G01X2640000Y-1660000D02*
G03I-50000J0D01*
M02*
