G04 ================== begin FILE IDENTIFICATION RECORD ==================*
G04 Layout Name:  AIRQUALITYBLUETOOTHSENSOR.brd*
G04 Film Name:    SM_BOT*
G04 File Format:  Gerber RS274X*
G04 File Origin:  Cadence Allegro 17.2-S083*
G04 Origin Date:  Thu Jan 12 19:11:16 2023*
G04 *
G04 Layer:  VIA CLASS/SOLDERMASK_BOTTOM*
G04 Layer:  PIN/SOLDERMASK_BOTTOM*
G04 Layer:  PACKAGE GEOMETRY/SOLDERMASK_BOTTOM*
G04 Layer:  ETCH/BOTTOM*
G04 Layer:  BOARD GEOMETRY/DESIGN_OUTLINE*
G04 *
G04 Offset:    (0.0000 0.0000)*
G04 Mirror:    No*
G04 Mode:      Positive*
G04 Rotation:  0*
G04 FullContactRelief:  No*
G04 UndefLineWidth:     0.1000*
G04 ================== end FILE IDENTIFICATION RECORD ====================*
%FSLAX25Y25*MOMM*%
%IR0*IPPOS*OFA0.00000B0.00000*MIA0B0*SFA1.00000B1.00000*%
%ADD12C,.4*%
%ADD10C,.45*%
%ADD11C,.65*%
%ADD15C,1.2*%
%ADD16R,.9X.75*%
%ADD13R,3.55X2.65*%
%ADD14R,.75X.9*%
%ADD17C,.2*%
%ADD18C,.25*%
%ADD19C,.127*%
%ADD20C,.1*%
%ADD22C,.9044*%
%ADD21C,1.4544*%
G75*
%LPD*%
G75*
G36*
G01X-1420000Y2140000D02*
X2820000D01*
Y-1935000D01*
X-1420000D01*
Y2140000D01*
G37*
%LPC*%
G75*
G36*
G01X122280Y-1785000D02*
Y-1525000D01*
G02X135000Y-1512280I12720J0D01*
G01X485000D01*
G02X497720Y-1525000I0J-12720D01*
G01Y-1785000D01*
G02X485000Y-1797720I-12720J0D01*
G01X135000D01*
G02X122280Y-1785000I0J12720D01*
G37*
G36*
G01X399780Y2000000D02*
Y2090000D01*
G02X412500Y2102720I12720J0D01*
G01X487500D01*
G02X500220Y2090000I0J-12720D01*
G01Y2000000D01*
G02X487500Y1987280I-12720J0D01*
G01X412500D01*
G02X399780Y2000000I0J12720D01*
G37*
G36*
G01X2197280Y-1267500D02*
Y-1192500D01*
G02X2210000Y-1179780I12720J0D01*
G01X2300000D01*
G02X2312720Y-1192500I0J-12720D01*
G01Y-1267500D01*
G02X2300000Y-1280220I-12720J0D01*
G01X2210000D01*
G02X2197280Y-1267500I0J12720D01*
G37*
G36*
G01X2192180Y-1344980D02*
Y-1332500D01*
G02X2210000Y-1314680I17820J0D01*
G01X2300000D01*
G02X2317820Y-1332500I0J-17820D01*
G01Y-1407500D01*
G02X2300000Y-1425320I-17820J0D01*
G01X2210000D01*
G02X2192180Y-1407500I0J17820D01*
G01Y-1395020D01*
X2057820D01*
Y-1407500D01*
G02X2040000Y-1425320I-17820J0D01*
G01X2020020D01*
Y-1541720D01*
G02X2062990Y-1584200I-25019J-68281D01*
G01X2064230Y-1587480D01*
X2375770D01*
X2377010Y-1584200D01*
G02X2445000Y-1537280I67990J-25801D01*
G02Y-1682720I0J-72720D01*
G02X2377010Y-1635800I0J72721D01*
G01X2375770Y-1632520D01*
X2064230D01*
X2062990Y-1635800D01*
G02X1995000Y-1682720I-67990J25801D01*
G02X1922280Y-1610000I0J72720D01*
G02X1969980Y-1541720I72720J0D01*
G01Y-1425320D01*
X1950000D01*
G02X1932180Y-1407500I0J17820D01*
G01Y-1332500D01*
G02X1950000Y-1314680I17820J0D01*
G01X2040000D01*
G02X2057820Y-1332500I0J-17820D01*
G01Y-1344980D01*
X2192180D01*
G37*
G36*
G01X-545920Y194080D02*
X-648130Y296280D01*
X-650810Y295720D01*
G02X-660000Y294780I-9172J44282D01*
G02X-614780Y340000I0J45220D01*
G02X-615720Y330810I-45222J-18D01*
G01X-616280Y328130D01*
X-520670Y232520D01*
X-285000D01*
G02X-269080Y225920I-7J-22517D01*
G01X-224080Y180920D01*
G02X-217480Y165000I-15917J-15927D01*
G01Y-305670D01*
X-195670Y-327480D01*
X240790D01*
G02X280000Y-304780I39210J-22514D01*
G02Y-395220I0J-45220D01*
G02X240790Y-372520I0J45214D01*
G01X-205000D01*
G02X-220920Y-365920I7J22517D01*
G01X-255920Y-330920D01*
G02X-262520Y-315000I15917J15927D01*
G01Y155670D01*
X-294330Y187480D01*
X-530000D01*
G02X-545920Y194080I7J22517D01*
G37*
G36*
G01X2019980Y478280D02*
Y541720D01*
G02X1972280Y610000I25020J68280D01*
G02X2117720I72720J0D01*
G02X2070020Y541720I-72720J0D01*
G01Y478280D01*
G02X2117720Y410000I-25020J-68280D01*
G02X1972280I-72720J0D01*
G02X2019980Y478280I72720J0D01*
G37*
G36*
G01X662480Y590670D02*
X374370Y878780D01*
X371690Y878220D01*
G02X362500Y877280I-9172J44282D01*
G02X407720Y922500I0J45220D01*
G02X406780Y913310I-45222J-18D01*
G01X406220Y910630D01*
X700920Y615920D01*
G02X707520Y600000I-15917J-15927D01*
G01Y-80790D01*
G02Y-159210I-22514J-39210D01*
G01Y-240670D01*
X754330Y-287480D01*
X1250790D01*
G02X1290000Y-264780I39210J-22514D01*
G02Y-355220I0J-45220D01*
G02X1250790Y-332520I0J45214D01*
G01X745000D01*
G02X729080Y-325920I7J22517D01*
G01X724860Y-321710D01*
G03X707520Y-328900I-7181J-7187D01*
G01Y-450670D01*
X789230Y-532380D01*
X934900D01*
G02X950820Y-538980I-7J-22517D01*
G01X995920Y-584080D01*
G02X1002520Y-600000I-15917J-15927D01*
G01Y-750790D01*
G02X1025220Y-790000I-22514J-39210D01*
G02X934780I-45220J0D01*
G02X957480Y-750790I45214J0D01*
G01Y-609330D01*
X925570Y-577420D01*
X779900D01*
G02X763980Y-570820I7J22517D01*
G01X669080Y-475920D01*
G02X662480Y-460000I15917J15927D01*
G01Y-159210D01*
G02Y-80790I22514J39210D01*
G01Y590670D01*
G37*
G36*
G01X1784980Y-982300D02*
Y1036720D01*
G02X1737280Y1105000I25020J68280D01*
G02X1882720I72720J0D01*
G02X1835020Y1036720I-72720J0D01*
G01Y-971940D01*
X2012690Y-1149610D01*
G02X2020020Y-1167300I-17681J-17690D01*
G01Y-1174680D01*
X2040000D01*
G02X2057820Y-1192500I0J-17820D01*
G01Y-1267500D01*
G02X2040000Y-1285320I-17820J0D01*
G01X1950000D01*
G02X1932180Y-1267500I0J17820D01*
G01Y-1192500D01*
G02X1950000Y-1174680I17820J0D01*
G01X1954730D01*
G03X1958320Y-1166010I0J5078D01*
G01X1792310Y-999990D01*
G02X1784980Y-982300I17681J17690D01*
G37*
G36*
G01X1469980Y1099640D02*
X1454000Y1115610D01*
X1451480Y1115250D01*
G02X1445000Y1114780I-6503J44748D01*
G02X1490220Y1160000I0J45220D01*
G02X1489750Y1153520I-45218J23D01*
G01X1489390Y1151000D01*
X1512690Y1127690D01*
G02X1520020Y1110000I-17681J-17690D01*
G01Y-1400000D01*
G02X1512690Y-1417690I-25011J0D01*
G01X1387690Y-1542690D01*
G02X1370000Y-1550020I-17690J17681D01*
G01X1287670D01*
G02X1250000Y-1570220I-37670J25024D01*
G02Y-1479780I0J45220D01*
G02X1287670Y-1499980I0J-45224D01*
G01X1359640D01*
X1469980Y-1389640D01*
Y1099640D01*
G37*
G36*
G01X254680Y2000000D02*
Y2090000D01*
G02X272500Y2107820I17820J0D01*
G01X347500D01*
G02X365320Y2090000I0J-17820D01*
G01Y2000000D01*
G02X347500Y1982180I-17820J0D01*
G01X335020D01*
Y1872820D01*
X485000D01*
G02X502820Y1855000I0J-17820D01*
G01Y1750020D01*
X702330D01*
G02X777670I37670J-25024D01*
G01X1985000D01*
G02X2002690Y1742690I0J-25011D01*
G01X2177690Y1567690D01*
G02X2185020Y1550000I-17681J-17690D01*
G01Y1423280D01*
G02X2232720Y1355000I-25020J-68280D01*
G02X2087280I-72720J0D01*
G02X2134980Y1423280I72720J0D01*
G01Y1539640D01*
X1974640Y1699980D01*
X777670D01*
G02X702330I-37670J25024D01*
G01X502820D01*
Y1595000D01*
G02X485000Y1577180I-17820J0D01*
G01X135000D01*
G02X117180Y1595000I0J17820D01*
G01Y1855000D01*
G02X135000Y1872820I17820J0D01*
G01X284980D01*
Y1982180D01*
X272500D01*
G02X254680Y2000000I0J17820D01*
G37*
G54D22*
X-336000Y1612000D03*
X-914000D03*
G54D21*
X1995000Y-940000D03*
X2445000D03*
X2245000Y-190000D03*
Y10000D03*
Y410000D03*
X2045000Y-190000D03*
X2245000Y210000D03*
Y610000D03*
X2045000Y10000D03*
Y210000D03*
X1810000Y1605000D03*
%LPD*%
G75*
G54D10*
X-1370000Y-115000D03*
X-1335000Y1955000D03*
X-985000Y-315000D03*
X-950000Y475000D03*
X-1136000Y1254000D03*
X-945000Y1255000D03*
X-465000Y-1720000D03*
X-500000Y-1065000D03*
X-750000D03*
X-375000Y-315000D03*
X-565000Y-155000D03*
X-785000Y-315000D03*
X-820000Y260000D03*
X-660000Y340000D03*
X-275000Y-1720000D03*
X-95000D03*
X45000Y-1235000D03*
X-60000Y515000D03*
X-201650Y430000D03*
X-250000Y1395000D03*
X-105000Y1410000D03*
X-65000Y1080000D03*
X160000Y-865000D03*
X320000Y-214800D03*
X280000Y-350000D03*
X525000Y365000D03*
X362500Y922500D03*
X95000Y1255000D03*
X105000Y1080000D03*
X100000Y1490000D03*
X125000Y1955000D03*
X950000Y-1319800D03*
X575000Y-1440000D03*
X980000Y-790000D03*
X685000Y-120000D03*
X580000Y-100000D03*
X920000Y535000D03*
X922500Y372500D03*
X740000Y1725000D03*
X1250000Y-1525000D03*
X1060000Y-425000D03*
X1290000Y-310000D03*
X1060000Y-185000D03*
X1410000Y650000D03*
X1420000Y1305000D03*
X1345000Y1080000D03*
X1100000Y1395000D03*
X1445000Y1160000D03*
X1615000Y650000D03*
G54D20*
G01X-2435000Y2140000D02*
Y-1935000D01*
X2820000D01*
Y2140000D01*
X-2435000D01*
G54D11*
X-914000Y1612000D03*
X-336000D03*
G54D12*
X-110000Y-5000D03*
X5000Y-120000D03*
Y-5000D03*
Y110000D03*
X120000Y-5000D03*
G54D13*
X310000Y-1655000D03*
Y1725000D03*
G54D14*
Y2045000D03*
X450000D03*
G54D15*
X1810000Y1105000D03*
Y1605000D03*
X1995000Y-1610000D03*
Y-940000D03*
X2245000Y-190000D03*
Y10000D03*
X2045000Y-190000D03*
Y10000D03*
X2245000Y210000D03*
Y410000D03*
X2045000Y210000D03*
Y410000D03*
X2245000Y610000D03*
X2045000D03*
X2160000Y1355000D03*
X2445000Y-1610000D03*
Y-940000D03*
G54D16*
X2255000Y-1370000D03*
X1995000D03*
X2255000Y-1230000D03*
X1995000D03*
G54D17*
G01X280000Y-350000D02*
X-205000D01*
X-240000Y-315000D01*
Y165000D01*
X-285000Y210000D01*
X-530000D01*
X-660000Y340000D01*
G01X685000Y-120000D02*
Y600000D01*
X362500Y922500D01*
G01X980000Y-790000D02*
Y-600000D01*
X934900Y-554900D01*
X779900D01*
X685000Y-460000D01*
Y-250000D01*
G01D02*
Y-120000D01*
G01X1290000Y-310000D02*
X745000D01*
X685000Y-250000D01*
G01X2445000Y-1610000D02*
X1995000D01*
G54D18*
G01X310000Y2045000D02*
Y1725000D01*
G01D02*
X740000D01*
G01X2160000Y1355000D02*
Y1550000D01*
X1985000Y1725000D01*
X740000D01*
G01X1445000Y1160000D02*
X1495000Y1110000D01*
Y-1400000D01*
X1370000Y-1525000D01*
X1250000D01*
G01X1810000Y1105000D02*
Y-982300D01*
X1995000Y-1167300D01*
Y-1230000D01*
G01Y-1370000D02*
X2255000D01*
G01X1995000Y-1610000D02*
Y-1370000D01*
G01X2045000Y410000D02*
Y610000D01*
G54D19*
G01X310000Y-1802800D02*
Y-1655000D01*
G01D02*
Y-1507200D01*
G01X117200Y-1655000D02*
X310000D01*
G01D02*
X502800D01*
G01X450000Y1982200D02*
Y2045000D01*
G01D02*
Y2107800D01*
G01X394700Y2045000D02*
X450000D01*
G01D02*
X505300D01*
G01X1995000Y-1017800D02*
Y-940000D01*
G01D02*
Y-862200D01*
G01X1917200Y-940000D02*
X1995000D01*
G01D02*
X2072800D01*
G01X2255000Y-1285300D02*
Y-1230000D01*
G01D02*
Y-1174700D01*
G01X2192200Y-1230000D02*
X2255000D01*
G01D02*
X2317800D01*
G01X2045000Y-67800D02*
Y10000D01*
G01D02*
Y87800D01*
G01X1967200Y10000D02*
X2045000D01*
G01D02*
X2122800D01*
G01X2045000Y132200D02*
Y210000D01*
G01D02*
Y287800D01*
G01X1967200Y210000D02*
X2045000D01*
G01D02*
X2122800D01*
G01X2445000Y-1017800D02*
Y-940000D01*
G01D02*
Y-862200D01*
G01X2367200Y-940000D02*
X2445000D01*
G01D02*
X2522800D01*
M02*
