G04 ================== begin FILE IDENTIFICATION RECORD ==================*
G04 Layout Name:  AIRQUALITYBLUETOOTHSENSOR.brd*
G04 Film Name:    SM_TOP*
G04 File Format:  Gerber RS274X*
G04 File Origin:  Cadence Allegro 17.2-S083*
G04 Origin Date:  Wed Feb 08 21:58:40 2023*
G04 *
G04 Layer:  EMBEDDED GEOMETRY/PASTEMASK*
G04 Layer:  DRC ERROR CLASS/SOLDERMASK_TOP*
G04 Layer:  BOARD GEOMETRY/SOLDERMASK_TOP*
G04 Layer:  VIA CLASS/SOLDERMASK_TOP*
G04 Layer:  PIN/SOLDERMASK_TOP*
G04 Layer:  PACKAGE GEOMETRY/SOLDERMASK_TOP*
G04 Layer:  BOARD GEOMETRY/DESIGN_OUTLINE*
G04 *
G04 Offset:    (0.0000 0.0000)*
G04 Mirror:    No*
G04 Mode:      Positive*
G04 Rotation:  0*
G04 FullContactRelief:  No*
G04 UndefLineWidth:     0.1000*
G04 ================== end FILE IDENTIFICATION RECORD ====================*
%FSLAX25Y25*MOMM*%
%IR0*IPPOS*OFA0.00000B0.00000*MIA0B0*SFA1.00000B1.00000*%
%ADD29R,1.1X.6*%
%ADD21R,.3X1.15*%
%ADD15R,.6X1.15*%
%ADD12C,.45*%
%ADD28R,3.4X.98*%
%AMMACRO25*
4,1,40,.4667,1.4,
-.4667,1.4,
-.628766,1.385821,
-.785907,1.343715,
-.93335,1.274962,
-1.066614,1.181649,
-1.181649,1.066614,
-1.274962,.93335,
-1.343715,.785907,
-1.385821,.628766,
-1.4,.4667,
-1.4,-.4667,
-1.385821,-.628766,
-1.343715,-.785907,
-1.274962,-.93335,
-1.181649,-1.066614,
-1.066614,-1.181649,
-.93335,-1.274962,
-.785907,-1.343715,
-.628766,-1.385821,
-.4667,-1.4,
.4667,-1.4,
.628766,-1.385821,
.785907,-1.343715,
.93335,-1.274962,
1.066614,-1.181649,
1.181649,-1.066614,
1.274962,-.93335,
1.343715,-.785907,
1.385821,-.628766,
1.4,-.4667,
1.4,.4667,
1.385821,.628766,
1.343715,.785907,
1.274962,.93335,
1.181649,1.066614,
1.066614,1.181649,
.93335,1.274962,
.785907,1.343715,
.628766,1.385821,
.4667,1.4,
0.0*
%
%ADD25MACRO25*%
%ADD16C,.65*%
%ADD27R,.74X2.79*%
%ADD20R,1.5X1.4*%
%ADD19R,1.5X2.3*%
%AMMACRO23*
4,1,40,-.125,.25,
-.125,-.25,
-.12424,-.258682,
-.121985,-.267101,
-.118301,-.275,
-.113302,-.282139,
-.107139,-.288302,
-.1,-.293301,
-.092101,-.296985,
-.083682,-.29924,
-.075,-.3,
.075,-.3,
.083682,-.29924,
.092101,-.296985,
.1,-.293301,
.107139,-.288302,
.113302,-.282139,
.118301,-.275,
.121985,-.267101,
.12424,-.258682,
.125,-.25,
.125,.25,
.12424,.258682,
.121985,.267101,
.118301,.275,
.113302,.282139,
.107139,.288302,
.1,.293301,
.092101,.296985,
.083682,.29924,
.075,.3,
-.075,.3,
-.083682,.29924,
-.092101,.296985,
-.1,.293301,
-.107139,.288302,
-.113302,.282139,
-.118301,.275,
-.121985,.267101,
-.12424,.258682,
-.125,.25,
0.0*
%
%ADD23MACRO23*%
%AMMACRO24*
4,1,40,.25,.125,
-.25,.125,
-.258682,.12424,
-.267101,.121985,
-.275,.118301,
-.282139,.113302,
-.288302,.107139,
-.293301,.1,
-.296985,.092101,
-.29924,.083682,
-.3,.075,
-.3,-.075,
-.29924,-.083682,
-.296985,-.092101,
-.293301,-.1,
-.288302,-.107139,
-.282139,-.113302,
-.275,-.118301,
-.267101,-.121985,
-.258682,-.12424,
-.25,-.125,
.25,-.125,
.258682,-.12424,
.267101,-.121985,
.275,-.118301,
.282139,-.113302,
.288302,-.107139,
.293301,-.1,
.296985,-.092101,
.29924,-.083682,
.3,-.075,
.3,.075,
.29924,.083682,
.296985,.092101,
.293301,.1,
.288302,.107139,
.282139,.113302,
.275,.118301,
.267101,.121985,
.258682,.12424,
.25,.125,
0.0*
%
%ADD24MACRO24*%
%ADD17R,2.18X2.*%
%ADD13R,.5X.5*%
%ADD18R,.6X.5*%
%ADD32C,1.3*%
%ADD11R,.5X.9*%
%ADD31C,1.6*%
%AMMACRO30*
4,1,40,.175,-.2433,
.175,.2433,
.173227,.263565,
.167962,.283214,
.159365,.30165,
.147697,.318313,
.133313,.332697,
.11665,.344365,
.098214,.352962,
.078565,.358227,
.0583,.36,
-.0583,.36,
-.078565,.358227,
-.098214,.352962,
-.11665,.344365,
-.133313,.332697,
-.147697,.318313,
-.159365,.30165,
-.167962,.283214,
-.173227,.263565,
-.175,.2433,
-.175,-.2433,
-.173227,-.263565,
-.167962,-.283214,
-.159365,-.30165,
-.147697,-.318313,
-.133313,-.332697,
-.11665,-.344365,
-.098214,-.352962,
-.078565,-.358227,
-.0583,-.36,
.0583,-.36,
.078565,-.358227,
.098214,-.352962,
.11665,-.344365,
.133313,-.332697,
.147697,-.318313,
.159365,-.30165,
.167962,-.283214,
.173227,-.263565,
.175,-.2433,
0.0*
%
%ADD30MACRO30*%
%AMMACRO22*
4,1,44,-.1255,.2497,
-.1244,-.2502,
-.123721,-.258882,
-.121458,-.267298,
-.117767,-.275194,
-.112761,-.282328,
-.106592,-.288485,
-.099448,-.293478,
-.091546,-.297153,
-.083125,-.299401,
-.074442,-.300153,
-.0743,-.3001,
.0756,-.2998,
.084281,-.299071,
.092696,-.2968,
.100588,-.293103,
.107718,-.288091,
.11387,-.281917,
.118856,-.274769,
.122526,-.266863,
.124766,-.25844,
.12551,-.249757,
.1255,-.2497,
.1244,.2502,
.123721,.258882,
.121458,.267298,
.117767,.275194,
.112761,.282328,
.106592,.288485,
.099448,.293478,
.091546,.297153,
.083125,.299401,
.074442,.300153,
.0743,.3001,
-.0756,.2998,
-.084281,.299071,
-.092696,.2968,
-.100588,.293103,
-.107718,.288091,
-.11387,.281917,
-.118856,.274769,
-.122526,.266863,
-.124766,.25844,
-.12551,.249757,
-.1255,.2497,
0.0*
%
%ADD22MACRO22*%
%ADD14R,.9X.75*%
%ADD10R,.75X.9*%
%AMMACRO26*
4,1,44,-.1249,.25,
-.125,-.2499,
-.124311,-.258584,
-.12207,-.267006,
-.118399,-.274911,
-.113412,-.282059,
-.10726,-.288232,
-.100129,-.293243,
-.092236,-.296939,
-.083821,-.299209,
-.07514,-.299983,
-.075,-.2999,
.0749,-.3,
.083583,-.299265,
.092004,-.297016,
.099906,-.29334,
.107049,-.288347,
.113218,-.28219,
.118223,-.275054,
.121913,-.267159,
.124176,-.258742,
.124943,-.25006,
.1249,-.25,
.125,.2499,
.124311,.258584,
.12207,.267006,
.118399,.274911,
.113412,.282059,
.10726,.288232,
.100129,.293243,
.092236,.296939,
.083821,.299209,
.07514,.299983,
.075,.2999,
-.0749,.3,
-.083583,.299265,
-.092004,.297016,
-.099906,.29334,
-.107049,.288347,
-.113218,.28219,
-.118223,.275054,
-.121913,.267159,
-.124176,.258742,
-.124943,.25006,
-.1249,.25,
0.0*
%
%ADD26MACRO26*%
%ADD33C,.1*%
G75*
%LPD*%
G75*
G54D10*
X-1375000Y95000D03*
X-985000D03*
X-845000D03*
X-1235000D03*
X-635000Y0D03*
X-495000D03*
X-660000Y475000D03*
X-800000D03*
X-500000Y350000D03*
X-360000D03*
X415000Y-350000D03*
X555000D03*
X335000Y1095000D03*
X475000D03*
X395000Y1340000D03*
X255000D03*
X395000Y1530000D03*
X255000D03*
X815000Y-425000D03*
X955000D03*
X815000Y-185000D03*
X955000D03*
X1425000Y-930000D03*
Y-360000D03*
Y-525000D03*
Y-715000D03*
X1565000Y-930000D03*
Y-360000D03*
Y-525000D03*
Y-715000D03*
G54D11*
X-1555000Y-115000D03*
G54D20*
X-462500Y562500D03*
Y717500D03*
X-277500Y562500D03*
Y717500D03*
G54D30*
X1195000Y411000D03*
X1145000D03*
X1095000D03*
X1045000D03*
Y559000D03*
X1095000D03*
X1145000D03*
X1195000D03*
G54D12*
X-1370000Y-115000D03*
X-1335000Y1955000D03*
X-985000Y-315000D03*
X-950000Y475000D03*
X-1136000Y1254000D03*
X-945000Y1255000D03*
X-465000Y-1720000D03*
X-500000Y-1065000D03*
X-750000D03*
X-375000Y-315000D03*
X-565000Y-155000D03*
X-785000Y-315000D03*
X-735000Y195000D03*
X-660000Y340000D03*
X-275000Y-1720000D03*
X-95000D03*
X45000Y-1235000D03*
X5000Y85000D03*
X-85000Y-5000D03*
X5000Y-95000D03*
Y-5000D03*
X-60000Y515000D03*
X-201650Y430000D03*
X-250000Y1395000D03*
X-105000Y1410000D03*
X-65000Y1080000D03*
X160000Y-865000D03*
X320000Y-214800D03*
X515000Y-115000D03*
X95000Y-5000D03*
X280000Y-350000D03*
X525000Y365000D03*
X362500Y922500D03*
X95000Y1255000D03*
X105000Y1080000D03*
X100000Y1490000D03*
Y1955000D03*
X950000Y-1319800D03*
X575000Y-1440000D03*
X980000Y-790000D03*
X685000Y-120000D03*
X920000Y535000D03*
X922500Y372500D03*
X740000Y1725000D03*
X1250000Y-1525000D03*
X1060000Y-425000D03*
X1290000Y-310000D03*
X1060000Y-185000D03*
X1410000Y650000D03*
X1420000Y1305000D03*
X1345000Y1080000D03*
X1100000Y1395000D03*
X1445000Y1160000D03*
X1615000Y650000D03*
G54D21*
X-800000Y1504500D03*
X-750000D03*
X-700000D03*
X-650000D03*
X-600000D03*
X-550000D03*
X-500000D03*
X-450000D03*
G54D22*
X65000Y-197500D03*
X25000D03*
X-15000D03*
X-55000D03*
X105000D03*
G54D31*
X1810000Y1105000D03*
Y1605000D03*
X2160000Y1355000D03*
G54D13*
X-1555000Y95000D03*
G54D14*
X-985000Y-50000D03*
Y-190000D03*
X-465000Y-1350000D03*
X-750000Y-930000D03*
X-500000D03*
X-465000Y-1210000D03*
X-750000Y-790000D03*
X-500000D03*
X-785000Y-50000D03*
Y-190000D03*
X-275000Y-1350000D03*
X-95000D03*
X45000Y-935000D03*
Y-1075000D03*
X-275000Y-1210000D03*
X-95000D03*
X45000Y-630000D03*
Y-770000D03*
X-65000Y835000D03*
Y975000D03*
X105000Y835000D03*
Y975000D03*
X225000Y505000D03*
X385000D03*
Y365000D03*
X225000Y645000D03*
X1410000Y410000D03*
Y550000D03*
X1195000Y1010000D03*
Y1150000D03*
X1250000Y1795000D03*
Y1655000D03*
X1615000Y410000D03*
Y550000D03*
X1590000Y1390000D03*
Y1530000D03*
G54D32*
X1995000Y-1610000D03*
Y-940000D03*
X2245000Y-190000D03*
Y10000D03*
X2045000Y-190000D03*
Y10000D03*
X2245000Y210000D03*
Y410000D03*
X2045000Y210000D03*
Y410000D03*
X2245000Y610000D03*
X2045000D03*
X2445000Y-1610000D03*
Y-940000D03*
G54D23*
X-95000Y-197500D03*
X-135000D03*
X145000D03*
G54D33*
G01X-2210000Y2140000D02*
Y-1935000D01*
X2820000D01*
Y2140000D01*
X-2210000D01*
G54D24*
X-187500Y-145000D03*
Y-105000D03*
Y-65000D03*
Y-25000D03*
Y15000D03*
Y55000D03*
Y95000D03*
Y135000D03*
X197500Y55000D03*
Y15000D03*
Y-25000D03*
Y-65000D03*
Y-105000D03*
Y-145000D03*
Y135000D03*
Y95000D03*
G54D15*
X-865000Y1504500D03*
X-945000D03*
X-385000D03*
X-305000D03*
G54D16*
X-914000Y1612000D03*
X-336000D03*
G54D25*
X5000Y-5000D03*
G54D26*
X-135000Y187500D03*
X-95000D03*
X-55000D03*
X-15000D03*
X25000D03*
X65000D03*
X105000D03*
X145000D03*
G54D17*
X-1136000Y1562000D03*
Y1955000D03*
X-114000Y1562000D03*
Y1955000D03*
G54D18*
X-465000Y-1620000D03*
Y-1520000D03*
X-275000Y-1620000D03*
Y-1520000D03*
X-95000Y-1620000D03*
Y-1520000D03*
X1420000Y1430000D03*
X1250000Y1340000D03*
Y1440000D03*
X1420000Y1530000D03*
G54D27*
X438000Y-1248500D03*
X311000D03*
X438000Y-841500D03*
X311000D03*
X692000Y-1248500D03*
X565000D03*
X819000D03*
X692000Y-841500D03*
X565000D03*
X819000D03*
G54D19*
X-500000Y-515000D03*
X-750000D03*
G54D28*
X835000Y771500D03*
Y1008500D03*
G54D29*
X640000Y1340000D03*
X930000Y1435000D03*
Y1340000D03*
X640000Y1530000D03*
X930000D03*
M02*
