G04 ================== begin FILE IDENTIFICATION RECORD ==================*
G04 Layout Name:  AIRQUALITYBLUETOOTHSENSOR.brd*
G04 Film Name:    TOP*
G04 File Format:  Gerber RS274X*
G04 File Origin:  Cadence Allegro 17.2-S083*
G04 Origin Date:  Thu Jan 12 19:11:15 2023*
G04 *
G04 Layer:  BOARD GEOMETRY/DESIGN_OUTLINE*
G04 Layer:  ETCH/TOP*
G04 Layer:  PIN/TOP*
G04 Layer:  VIA CLASS/TOP*
G04 *
G04 Offset:    (0.0000 0.0000)*
G04 Mirror:    No*
G04 Mode:      Positive*
G04 Rotation:  0*
G04 FullContactRelief:  No*
G04 UndefLineWidth:     0.1000*
G04 ================== end FILE IDENTIFICATION RECORD ====================*
%FSLAX25Y25*MOMM*%
%IR0*IPPOS*OFA0.00000B0.00000*MIA0B0*SFA1.00000B1.00000*%
%ADD29R,1.1X.6*%
%ADD20R,.3X1.15*%
%ADD19R,1.X.9*%
%ADD15R,.6X1.15*%
%ADD25C,.2*%
%ADD28R,3.4X.98*%
%ADD12C,.65*%
%ADD27R,.74X2.79*%
%ADD18R,1.X1.8*%
%AMMACRO22*
4,1,40,-.1,.225,
-.1,-.225,
-.09924,-.233682,
-.096985,-.242101,
-.093301,-.25,
-.088302,-.257139,
-.082139,-.263302,
-.075,-.268301,
-.067101,-.271985,
-.058682,-.27424,
-.05,-.275,
.05,-.275,
.058682,-.27424,
.067101,-.271985,
.075,-.268301,
.082139,-.263302,
.088302,-.257139,
.093301,-.25,
.096985,-.242101,
.09924,-.233682,
.1,-.225,
.1,.225,
.09924,.233682,
.096985,.242101,
.093301,.25,
.088302,.257139,
.082139,.263302,
.075,.268301,
.067101,.271985,
.058682,.27424,
.05,.275,
-.05,.275,
-.058682,.27424,
-.067101,.271985,
-.075,.268301,
-.082139,.263302,
-.088302,.257139,
-.093301,.25,
-.096985,.242101,
-.09924,.233682,
-.1,.225,
0.0*
%
%ADD22MACRO22*%
%AMMACRO23*
4,1,40,.225,.1,
-.225,.1,
-.233682,.09924,
-.242101,.096985,
-.25,.093301,
-.257139,.088302,
-.263302,.082139,
-.268301,.075,
-.271985,.067101,
-.27424,.058682,
-.275,.05,
-.275,-.05,
-.27424,-.058682,
-.271985,-.067101,
-.268301,-.075,
-.263302,-.082139,
-.257139,-.088302,
-.25,-.093301,
-.242101,-.096985,
-.233682,-.09924,
-.225,-.1,
.225,-.1,
.233682,-.09924,
.242101,-.096985,
.25,-.093301,
.257139,-.088302,
.263302,-.082139,
.268301,-.075,
.271985,-.067101,
.27424,-.058682,
.275,-.05,
.275,.05,
.27424,.058682,
.271985,.067101,
.268301,.075,
.263302,.082139,
.257139,.088302,
.25,.093301,
.242101,.096985,
.233682,.09924,
.225,.1,
0.0*
%
%ADD23MACRO23*%
%ADD16R,2.18X2.*%
%ADD13R,.5X.5*%
%AMMACRO24*
4,1,40,1.35,1.4,
-1.35,1.4,
-1.358682,1.39924,
-1.367101,1.396985,
-1.375,1.393301,
-1.382139,1.388302,
-1.388302,1.382139,
-1.393301,1.375,
-1.396985,1.367101,
-1.39924,1.358682,
-1.4,1.35,
-1.4,-1.35,
-1.39924,-1.358682,
-1.396985,-1.367101,
-1.393301,-1.375,
-1.388302,-1.382139,
-1.382139,-1.388302,
-1.375,-1.393301,
-1.367101,-1.396985,
-1.358682,-1.39924,
-1.35,-1.4,
1.35,-1.4,
1.358682,-1.39924,
1.367101,-1.396985,
1.375,-1.393301,
1.382139,-1.388302,
1.388302,-1.382139,
1.393301,-1.375,
1.396985,-1.367101,
1.39924,-1.358682,
1.4,-1.35,
1.4,1.35,
1.39924,1.358682,
1.396985,1.367101,
1.393301,1.375,
1.388302,1.382139,
1.382139,1.388302,
1.375,1.393301,
1.367101,1.396985,
1.358682,1.39924,
1.35,1.4,
0.0*
%
%ADD24MACRO24*%
%ADD17R,.6X.5*%
%ADD31C,1.2*%
%ADD11R,.5X.9*%
%AMMACRO30*
4,1,40,.15,-.2183,
.15,.2183,
.148227,.238565,
.142962,.258214,
.134365,.27665,
.122697,.293313,
.108313,.307697,
.09165,.319365,
.073214,.327962,
.053565,.333227,
.0333,.335,
-.0333,.335,
-.053565,.333227,
-.073214,.327962,
-.09165,.319365,
-.108313,.307697,
-.122697,.293313,
-.134365,.27665,
-.142962,.258214,
-.148227,.238565,
-.15,.2183,
-.15,-.2183,
-.148227,-.238565,
-.142962,-.258214,
-.134365,-.27665,
-.122697,-.293313,
-.108313,-.307697,
-.09165,-.319365,
-.073214,-.327962,
-.053565,-.333227,
-.0333,-.335,
.0333,-.335,
.053565,-.333227,
.073214,-.327962,
.09165,-.319365,
.108313,-.307697,
.122697,-.293313,
.134365,-.27665,
.142962,-.258214,
.148227,-.238565,
.15,-.2183,
0.0*
%
%ADD30MACRO30*%
%AMMACRO21*
4,1,44,-.1004,.2247,
-.0995,-.2252,
-.098764,-.233881,
-.096491,-.242295,
-.092792,-.250187,
-.087779,-.257316,
-.081604,-.263467,
-.074455,-.268452,
-.066549,-.27212,
-.058126,-.274359,
-.049442,-.275102,
-.0494,-.2751,
.0505,-.2748,
.059182,-.274131,
.067599,-.271868,
.075495,-.268178,
.08263,-.263173,
.088788,-.257006,
.093781,-.249862,
.097458,-.24196,
.099707,-.23354,
.100459,-.224857,
.1004,-.2247,
.0995,.2252,
.098764,.233881,
.096491,.242295,
.092792,.250187,
.087779,.257316,
.081604,.263467,
.074455,.268452,
.066549,.27212,
.058126,.274359,
.049442,.275102,
.0494,.2751,
-.0505,.2748,
-.059182,.274131,
-.067599,.271868,
-.075495,.268178,
-.08263,.263173,
-.088788,.257006,
-.093781,.249862,
-.097458,.24196,
-.099707,.23354,
-.100459,.224857,
-.1004,.2247,
0.0*
%
%ADD21MACRO21*%
%ADD14R,.9X.75*%
%ADD10R,.75X.9*%
%AMMACRO26*
4,1,44,-.0999,.225,
-.1,-.2249,
-.099307,-.233584,
-.097066,-.242006,
-.093397,-.249912,
-.08841,-.25706,
-.082258,-.263234,
-.075128,-.268245,
-.067235,-.271943,
-.058821,-.274214,
-.05014,-.274989,
-.05,-.2749,
.0499,-.275,
.058583,-.27426,
.067004,-.272013,
.074907,-.268337,
.082051,-.263345,
.08822,-.257188,
.093226,-.250054,
.096917,-.242158,
.099181,-.233742,
.099949,-.22506,
.0999,-.225,
.1,.2249,
.099307,.233584,
.097066,.242006,
.093397,.249912,
.08841,.25706,
.082258,.263234,
.075128,.268245,
.067235,.271943,
.058821,.274214,
.05014,.274989,
.05,.2749,
-.0499,.275,
-.058583,.27426,
-.067004,.272013,
-.074907,.268337,
-.082051,.263345,
-.08822,.257188,
-.093226,.250054,
-.096917,.242158,
-.099181,.233742,
-.099949,.22506,
-.0999,.225,
0.0*
%
%ADD26MACRO26*%
%ADD32C,.25*%
%ADD33C,.1*%
G75*
%LPD*%
G75*
G36*
G01X-1725000Y-160000D02*
X-2215000D01*
Y340000D01*
X-1951000D01*
Y540000D01*
X-2215000D01*
Y810000D01*
X-1951000D01*
Y1010000D01*
X-2215000D01*
Y1280000D01*
X-1771000D01*
Y1230000D01*
X-2165000D01*
Y1060000D01*
X-1901000D01*
Y760000D01*
X-2165000D01*
Y590000D01*
X-1899000D01*
Y292000D01*
X-1901000Y290000D01*
X-2165000D01*
Y120000D01*
X-1725000D01*
Y70000D01*
X-2165000D01*
Y-70000D01*
X-1725000D01*
Y-160000D01*
G37*
G54D10*
X-1375000Y95000D03*
X-985000D03*
X-845000D03*
X-1235000D03*
X-635000Y0D03*
X-495000D03*
X-660000Y475000D03*
X-800000D03*
X-500000Y350000D03*
X-360000D03*
X415000Y-350000D03*
X555000D03*
X335000Y1095000D03*
X475000D03*
X395000Y1340000D03*
X255000D03*
X395000Y1530000D03*
X255000D03*
X815000Y-425000D03*
X955000D03*
X815000Y-185000D03*
X955000D03*
X1425000Y-930000D03*
Y-360000D03*
Y-525000D03*
Y-715000D03*
X1565000Y-930000D03*
Y-360000D03*
Y-525000D03*
Y-715000D03*
G54D11*
X-1700000Y-115000D03*
G54D20*
X-800000Y1504500D03*
X-750000D03*
X-700000D03*
X-650000D03*
X-600000D03*
X-550000D03*
X-500000D03*
X-450000D03*
G54D21*
X65000Y-197500D03*
X25000D03*
X-15000D03*
X-55000D03*
X105000D03*
G54D30*
X1195000Y411000D03*
X1145000D03*
X1095000D03*
X1045000D03*
Y559000D03*
X1095000D03*
X1145000D03*
X1195000D03*
G54D12*
X-1370000Y-115000D03*
X-1335000Y1955000D03*
X-985000Y-315000D03*
X-950000Y475000D03*
X-1136000Y1254000D03*
X-945000Y1255000D03*
X-914000Y1612000D03*
X-465000Y-1720000D03*
X-500000Y-1065000D03*
X-750000D03*
X-375000Y-315000D03*
X-565000Y-155000D03*
X-785000Y-315000D03*
X-820000Y260000D03*
X-660000Y340000D03*
X-275000Y-1720000D03*
X-95000D03*
X45000Y-1235000D03*
X-60000Y515000D03*
X-201650Y430000D03*
X-250000Y1395000D03*
X-105000Y1410000D03*
X-65000Y1080000D03*
X-336000Y1612000D03*
X160000Y-865000D03*
X320000Y-214800D03*
X280000Y-350000D03*
X525000Y365000D03*
X362500Y922500D03*
X95000Y1255000D03*
X105000Y1080000D03*
X100000Y1490000D03*
X125000Y1955000D03*
X950000Y-1319800D03*
X575000Y-1440000D03*
X980000Y-790000D03*
X685000Y-120000D03*
X580000Y-100000D03*
X920000Y535000D03*
X922500Y372500D03*
X740000Y1725000D03*
X1250000Y-1525000D03*
X1060000Y-425000D03*
X1290000Y-310000D03*
X1060000Y-185000D03*
X1410000Y650000D03*
X1420000Y1305000D03*
X1345000Y1080000D03*
X1100000Y1395000D03*
X1445000Y1160000D03*
X1615000Y650000D03*
G54D31*
X1810000Y1105000D03*
Y1605000D03*
X1995000Y-1610000D03*
Y-940000D03*
X2245000Y-190000D03*
Y10000D03*
X2045000Y-190000D03*
Y10000D03*
X2245000Y210000D03*
Y410000D03*
X2045000Y210000D03*
Y410000D03*
X2245000Y610000D03*
X2045000D03*
X2160000Y1355000D03*
X2445000Y-1610000D03*
Y-940000D03*
G54D13*
X-1700000Y95000D03*
G54D22*
X-95000Y-197500D03*
X-135000D03*
X145000D03*
G54D32*
G01X-1700000Y-115000D02*
X-1370000D01*
G01X-1375000Y95000D02*
X-1700000D01*
G01X-1136000Y1955000D02*
X-1335000D01*
G01X-985000Y95000D02*
Y-50000D01*
G01X-845000Y95000D02*
Y10000D01*
X-785000Y-50000D01*
G01X-985000Y-190000D02*
Y-315000D01*
G01X-1235000Y95000D02*
X-985000D01*
G01X-945000Y1504500D02*
Y1255000D01*
G01X-1136000Y1562000D02*
Y1254000D01*
G01X-865000Y1504500D02*
Y1421800D01*
X-773200Y1330000D01*
X-293200D01*
G01X-785000Y-50000D02*
X-685000D01*
X-635000Y0D01*
G01X-785000Y-190000D02*
Y-315000D01*
G01X-65000Y835000D02*
X-595000D01*
X-660000Y770000D01*
Y475000D01*
G01X-385000Y1504500D02*
Y1421800D01*
X-293200Y1330000D01*
G01X-114000Y1562000D02*
Y1419000D01*
X-105000Y1410000D01*
G01X-305000Y1504500D02*
Y1421800D01*
X-278200Y1395000D01*
X-250000D01*
G01X-293200Y1330000D02*
X70000D01*
X175000Y1435000D01*
X307500D01*
X395000Y1522500D01*
Y1530000D01*
G01X-114000Y1955000D02*
X125000D01*
G01X225000Y645000D02*
X232500D01*
X287820Y700320D01*
Y722820D01*
X560000Y995000D01*
X623000D01*
X636500Y1008500D01*
G01X395000Y1340000D02*
X640000D01*
G01X475000Y1095000D02*
X550000D01*
X636500Y1008500D01*
G01X395000Y1530000D02*
X640000D01*
G01X835000Y771500D02*
Y320000D01*
X910000Y245000D01*
X1080000D01*
X1145000Y310000D01*
Y411000D01*
G01X640000Y1530000D02*
X665000D01*
X785000Y1410000D01*
Y1295000D01*
X855000Y1225000D01*
X1380000D01*
X1445000Y1160000D01*
G01X636500Y1008500D02*
X835000D01*
G01D02*
X1125800D01*
X1127300Y1010000D01*
X1195000D01*
G01X930000Y1340000D02*
X1010200D01*
X1053020Y1297180D01*
X1202180D01*
X1245000Y1340000D01*
X1250000D01*
G01Y1795000D02*
X1105000D01*
X930000Y1620000D01*
G01D02*
Y1530000D01*
G01X740000Y1725000D02*
Y1667300D01*
X787300Y1620000D01*
X930000D01*
G01X1425000Y-930000D02*
Y-715000D01*
G01Y-525000D02*
Y-360000D01*
G01Y-715000D02*
Y-525000D01*
G01X1045000Y411000D02*
Y460000D01*
X1065000Y480000D01*
X1122200D01*
X1145000Y502800D01*
Y559000D01*
G01X1195000Y411000D02*
X1338800D01*
X1339800Y410000D01*
X1410000D01*
G01X1615000D02*
X1410000D01*
G01X1145000Y559000D02*
X1195000D01*
G01D02*
Y1010000D01*
G01D02*
X1715000D01*
X1810000Y1105000D01*
G01X1250000Y1655000D02*
Y1440000D01*
G01X2045000Y410000D02*
X1615000D01*
G01X1810000Y1105000D02*
X1590000Y1325000D01*
Y1390000D01*
G54D14*
X-985000Y-50000D03*
Y-190000D03*
X-465000Y-1350000D03*
X-750000Y-930000D03*
X-500000D03*
X-465000Y-1210000D03*
X-750000Y-790000D03*
X-500000D03*
X-785000Y-50000D03*
Y-190000D03*
X-275000Y-1350000D03*
X-95000D03*
X45000Y-935000D03*
Y-1075000D03*
X-275000Y-1210000D03*
X-95000D03*
X45000Y-630000D03*
Y-770000D03*
X-65000Y835000D03*
Y975000D03*
X105000Y835000D03*
Y975000D03*
X225000Y505000D03*
X385000D03*
Y365000D03*
X225000Y645000D03*
X1410000Y410000D03*
Y550000D03*
X1195000Y1010000D03*
Y1150000D03*
X1250000Y1795000D03*
Y1655000D03*
X1615000Y410000D03*
Y550000D03*
X1590000Y1390000D03*
Y1530000D03*
G54D23*
X-187500Y-145000D03*
Y-105000D03*
Y-65000D03*
Y-25000D03*
Y15000D03*
Y55000D03*
Y95000D03*
Y135000D03*
X197500Y55000D03*
Y15000D03*
Y-25000D03*
Y-65000D03*
Y-105000D03*
Y-145000D03*
Y135000D03*
Y95000D03*
G54D33*
G01X-2435000Y2140000D02*
Y-1935000D01*
X2820000D01*
Y2140000D01*
X-2435000D01*
G54D24*
X5000Y-5000D03*
G54D15*
X-865000Y1504500D03*
X-945000D03*
X-385000D03*
X-305000D03*
G54D16*
X-1136000Y1562000D03*
Y1955000D03*
X-114000Y1562000D03*
Y1955000D03*
G54D25*
G01X-800000Y475000D02*
X-950000D01*
G01X-465000Y-1620000D02*
Y-1720000D01*
G01Y-1520000D02*
Y-1350000D01*
G01X-750000Y-930000D02*
Y-1065000D01*
G01X-500000Y-930000D02*
Y-1065000D01*
G01X-465000Y-1210000D02*
X-457500D01*
X-187500Y-940000D01*
Y-145000D01*
G01Y-65000D02*
X-295000D01*
X-500000Y-270000D01*
Y-515000D01*
G01D02*
Y-790000D01*
G01X-187500Y-25000D02*
X-315000D01*
X-683940Y-393940D01*
Y-408940D01*
X-750000Y-475000D01*
Y-515000D01*
G01D02*
Y-790000D01*
G01X-187500Y95000D02*
X-407500D01*
X-495000Y7500D01*
Y0D01*
G01X-187500Y55000D02*
X-299800D01*
X-509800Y-155000D01*
X-565000D01*
G01X-95000Y187500D02*
X-94990Y236600D01*
X-288390Y430000D01*
X-325000D01*
X-457500Y562500D01*
X-462500D01*
G01X-187500Y135000D02*
X-510000D01*
X-550000Y95000D01*
X-845000D01*
G01X-500000Y350000D02*
X-560200D01*
X-650200Y260000D01*
X-820000D01*
G01X-660000Y467500D02*
Y340000D01*
G01Y467500D02*
X-627500Y435000D01*
X-437500D01*
X-360000Y357500D01*
Y350000D01*
G01X-660000Y475000D02*
Y467500D01*
G01X-277500Y562500D02*
X-282500D01*
X-379020Y659020D01*
X-399020D01*
X-457500Y717500D01*
X-462500D01*
G01X-275000Y-1620000D02*
Y-1720000D01*
G01X-95000Y-1620000D02*
Y-1720000D01*
G01X-275000Y-1520000D02*
Y-1350000D01*
G01X-95000Y-1520000D02*
Y-1350000D01*
G01X980000Y-790000D02*
Y-896320D01*
X826320Y-1050000D01*
X167500D01*
X52500Y-935000D01*
X45000D01*
G01X-55000Y-197500D02*
X-54900Y-247700D01*
Y-824900D01*
X-55000Y-825000D01*
Y-842500D01*
X37500Y-935000D01*
X45000D01*
G01Y-1075000D02*
Y-1235000D01*
G01X-95000Y-1210000D02*
Y-197500D01*
G01X-275000Y-1210000D02*
X-267500D01*
X-135000Y-1077500D01*
Y-197500D01*
G01X-15000D02*
X-14900Y-247700D01*
Y-570100D01*
X-13480Y-571520D01*
Y-579020D01*
X37500Y-630000D01*
X45000D01*
G01Y-770000D02*
X112700D01*
X160000Y-817300D01*
Y-865000D01*
G01X65000Y-197500D02*
X65100Y-247700D01*
X65370Y-247970D01*
Y-435490D01*
X165080Y-535000D01*
X234000D01*
X438000Y-739000D01*
Y-841500D01*
G01X25000Y-197500D02*
X25100Y-247700D01*
Y-453100D01*
X311000Y-739000D01*
Y-841500D01*
G01X-187500Y-105000D02*
X-260200D01*
X-375000Y-219800D01*
Y-315000D01*
G01X-55000Y187500D02*
Y270010D01*
X-130000Y345010D01*
Y575000D01*
X-272500Y717500D01*
X-277500D01*
G01X65010Y240200D02*
X65000Y187500D01*
G01X65010Y240200D02*
Y399810D01*
X105000Y439800D01*
Y835000D01*
G01X65000Y187500D02*
X65010Y237700D01*
Y240200D01*
G01X-15000Y187500D02*
Y289990D01*
X-60000Y334990D01*
Y515000D01*
G01X-201650Y430000D02*
Y491650D01*
X-272500Y562500D01*
X-277500D01*
G01X25000Y187500D02*
Y555000D01*
X-65000Y645000D01*
Y835000D01*
G01X-135000Y187500D02*
Y205000D01*
X-161350Y231370D01*
X-279980Y350000D01*
X-360000D01*
G01X-65000Y975000D02*
Y1080000D01*
G01X311000Y-1248500D02*
Y-1351000D01*
X420000Y-1460000D01*
X485000D01*
X550000Y-1525000D01*
X1250000D01*
G01X565000Y-1248500D02*
X438000D01*
G01X105000Y-197500D02*
Y-405000D01*
X190000Y-490000D01*
X316000D01*
X565000Y-739000D01*
Y-841500D01*
G01X145000Y-197500D02*
Y-385000D01*
X210000Y-450000D01*
X462700D01*
X692000Y-679300D01*
Y-841500D01*
G01X197500Y-65000D02*
X405000D01*
X525000Y-185000D01*
X815000D01*
G01X197500Y-145000D02*
X250200D01*
X320000Y-214800D01*
G01X197500Y-25000D02*
X505000D01*
X580000Y-100000D01*
G01X197500Y15000D02*
X217930D01*
X219030Y13900D01*
X971100D01*
X1185000Y-200000D01*
Y-610000D01*
G01X197500Y55000D02*
X204470D01*
X206670Y52800D01*
X233590D01*
X234690Y51700D01*
X1018300D01*
X1201520Y-131520D01*
X1986520D01*
X2045000Y-190000D01*
G01X415000Y-350000D02*
X280000D01*
G01X197500Y-105000D02*
X317500D01*
X555000Y-342500D01*
Y-350000D01*
G01X385000Y505000D02*
X225000D01*
G01D02*
Y410010D01*
X105030Y290040D01*
Y237720D01*
X105010Y237700D01*
X105000Y187500D01*
G01X385000Y365000D02*
X525000D01*
G01X197500Y135000D02*
X1140000D01*
X1165000Y110000D01*
X2145000D01*
X2245000Y10000D01*
G01X145000Y187500D02*
X177700Y187490D01*
X1862490D01*
X2002300Y327300D01*
X2162300D01*
X2245000Y410000D01*
G01X197500Y95000D02*
X217930D01*
X220130Y92800D01*
X233590D01*
X235790Y90600D01*
X249250D01*
X250350Y89500D01*
X1090500D01*
X1270000Y-90000D01*
X2145000D01*
X2245000Y-190000D01*
G01X362500Y922500D02*
X324890Y960110D01*
Y1077390D01*
G01X105000Y835000D02*
X112500D01*
X230000Y952500D01*
Y982500D01*
X324890Y1077390D01*
G01X105000Y975000D02*
Y1080000D01*
G01X335000Y1095000D02*
Y1087500D01*
X324890Y1077390D01*
G01X255000Y1340000D02*
X180000D01*
X95000Y1255000D01*
G01X255000Y1530000D02*
X140000D01*
X100000Y1490000D01*
G01X819000Y-1248500D02*
X878700D01*
X950000Y-1319800D01*
G01X575000Y-1440000D02*
X565000Y-1430000D01*
Y-1248500D01*
G01X815000Y-185000D02*
Y-425000D01*
G01X955000D02*
X1060000D01*
G01X819000Y-841500D02*
Y-739000D01*
X928000Y-630000D01*
X1165000D01*
X1185000Y-610000D01*
G01X685000Y-120000D02*
X757500D01*
X815000Y-177500D01*
Y-185000D01*
G01X955000D02*
X1060000D01*
G01X1095000Y411000D02*
Y354800D01*
X1050200Y310000D01*
X985000D01*
X922500Y372500D01*
G01X1095000Y559000D02*
Y615200D01*
X1065200Y645000D01*
X950000D01*
X920000Y615000D01*
Y535000D01*
G01X930000Y1435000D02*
X1060000D01*
X1100000Y1395000D01*
G01X1995000Y-1610000D02*
X1615000D01*
X1185000Y-1180000D01*
Y-610000D01*
G01X1290000Y-310000D02*
X1340000Y-360000D01*
X1425000D01*
G01X1410000Y550000D02*
Y650000D01*
G01X1420000Y1305000D02*
Y1430000D01*
G01X1195000Y1150000D02*
X1275000D01*
X1345000Y1080000D01*
G01X1420000Y1530000D02*
X1590000D01*
G01X1565000Y-930000D02*
X1845000D01*
X2420000Y-355000D01*
Y317700D01*
X2327700Y410000D01*
X2245000D01*
G01X1565000Y-715000D02*
X1970000D01*
X2370000Y-315000D01*
Y-32300D01*
X2327700Y10000D01*
X2245000D01*
G01X1565000Y-525000D02*
X1910000D01*
X2245000Y-190000D01*
G01X1565000Y-360000D02*
X1875000D01*
X2045000Y-190000D01*
G01X1615000Y550000D02*
Y650000D01*
X-110000Y-5000D03*
X5000Y-120000D03*
Y-5000D03*
Y110000D03*
X120000Y-5000D03*
G54D26*
X-135000Y187500D03*
X-95000D03*
X-55000D03*
X-15000D03*
X25000D03*
X65000D03*
X105000D03*
X145000D03*
G54D17*
X-465000Y-1620000D03*
Y-1520000D03*
X-275000Y-1620000D03*
Y-1520000D03*
X-95000Y-1620000D03*
Y-1520000D03*
X1420000Y1430000D03*
X1250000Y1340000D03*
Y1440000D03*
X1420000Y1530000D03*
G54D18*
X-500000Y-515000D03*
X-750000D03*
G54D27*
X438000Y-1248500D03*
X311000D03*
X438000Y-841500D03*
X311000D03*
X692000Y-1248500D03*
X565000D03*
X819000D03*
X692000Y-841500D03*
X565000D03*
X819000D03*
G54D28*
X835000Y771500D03*
Y1008500D03*
G54D19*
X-462500Y562500D03*
Y717500D03*
X-277500Y562500D03*
Y717500D03*
G54D29*
X640000Y1340000D03*
X930000Y1435000D03*
Y1340000D03*
X640000Y1530000D03*
X930000D03*
M02*
